<?xml version="1.0" encoding="utf-8"?>
<!-- Generator: Adobe Illustrator 19.0.0, SVG Export Plug-In . SVG Version: 6.00 Build 0)  -->
<svg version="1.1" id="Isolation_Mode" xmlns="http://www.w3.org/2000/svg" xmlns:xlink="http://www.w3.org/1999/xlink" x="0px"
	 y="0px" viewBox="0 0 680 354.1" style="enable-background:new 0 0 680 354.1;" xml:space="preserve">
<style type="text/css">
	.st0{fill:#EAEBFB;}
	.st1{fill:#DFE0F3;}
	.st2{fill:#ACE0E8;}
	.st3{fill:#FFFFFF;}
	.st4{fill:#63B7BD;}
	.st5{fill:#8CD0D8;}
	.st6{fill:#559DA1;}
	.st7{fill:#80A9B0;}
	.st8{fill:#9FC0CA;}
	.st9{fill:#637E7F;}
	.st10{fill:#60B0E1;}
	.st11{fill:#69C1ED;}
	.st12{fill:#3D415B;}
	.st13{fill:#E37296;}
</style>
<g id="XMLID_156_">
	<path id="XMLID_60_" class="st0" d="M353.2,18.7c-17.8-0.2-125.6-1.8-128.8,28.2c-3,28.8,38.7,18.2,39.1,31
		c0.4,13.4-7.5,17.3-29.8,16.4c-9.6-0.4-40,3-40.5,22.2c-0.5,19.1,33.5,16.7,31.8,32.5c-1,18-26.8,21.9-36.9,26.7
		c-11,5.8-31.4,15.3-26.7,35.7c6.1,23.7,45.2,19.4,59.9,22.4c9.8,1.6,41,4.3,36.6,25.3c-2.3,12.6-27.9,13.4-23.1,29.5
		c5,15.1,49.6,18.1,58.7,18.6c37.6,2,120,5.4,156.8-10.1c13.5-5.6,25.4-12.4,24-32.7c-0.7-18.1-10.4-20.7,6-34.7
		c10.4-9,30.3-8.3,29.1-34.5c-0.6-14.2-36.9-20.1-36.1-34.9c1.3-23.3,45.7-3.5,45.9-44.7c0.1-25.7-80.8-11.3-80-36.8
		c-1.1-10.3,16.7-14.7,16-26.1C455.6,34.4,434.7,20.9,353.2,18.7z"/>
</g>
<path id="XMLID_155_" class="st1" d="M143.9,250.6c-0.1,0.1-0.2,0.1-0.3,0.1c-20.7,0-41.3,0-62,0c-0.3,0-0.6-0.2-0.6-0.5
	c-0.7-2.9,2.7-5.3,5-4.1c0.3-1.5,1.8-2.5,3.4-2.3c-0.9-2.7,0.3-5.4,3.2-6.7c2.6-1.2,5-0.2,6.6,1.8c0.9-4.6,4.8-8.5,9.6-8.8
	c2.6-0.2,5.4,0.6,7.4,2.3c2,1.7,2.7,3.6,3.2,5.8c1.5-2.2,4-3.2,6.8-2.3c2.8,0.9,3.1,3.7,3,6.3c2.2-1.9,4.9-2.8,7.9-1
	c2.4,1.5,3,3.8,3.1,6.4c2-1.2,4.1,0,4.2,2.7C144.2,250.3,144.1,250.5,143.9,250.6z"/>
<path id="XMLID_153_" class="st1" d="M455.4,76.8c0,11.9,32.2,14.1,33.9,0C491,62.8,455.4,59,455.4,76.8z"/>
<path id="XMLID_151_" class="st1" d="M195.2,259.5c0,11.9,39.9,14.2,41.3,0C238.3,242,195.2,238.7,195.2,259.5z"/>
<path id="XMLID_150_" class="st1" d="M427.6,326.5c0,14.1,47.3,16.8,49,0C478.8,305.8,427.6,301.8,427.6,326.5z"/>
<path id="XMLID_137_" class="st1" d="M191.9,77.7c0,7.8,22,9.3,22.8,0C215.6,66.3,191.9,64.1,191.9,77.7z"/>
<path id="XMLID_136_" class="st2" d="M175.2,259.8c0.7-3.3-4.2-6.3-8-5.1c0.6-2.3-0.1-4.3-3.4-5.3c-1.4-0.4-3.1-0.4-4.5,0
	c2.6-5.2,0.2-11.2-7.9-12.4c-8.8-1.3-18.6,3-20.4,10c-7.2-7.1-22.4,1.4-17.9,9.5c-2.8-0.4-5.6,1.1-5.8,3.5c-2.8-1-5,1.9-3.3,4.4
	c0.1,0.2,0.4,0.3,0.6,0.3c25,0,50,0,75,0c0.2,0,0.3,0,0.5-0.1c0.1-0.1,0.2-0.2,0.3-0.3C181.1,261.6,177.9,259.3,175.2,259.8z"/>
<path id="XMLID_135_" class="st3" d="M318.6,271.7c0.3-1.5-1.9-2.8-3.5-2.3c0.3-1,0-1.9-1.5-2.4c-0.6-0.2-1.4-0.2-2,0
	c1.2-2.3,0.1-5-3.5-5.5c-3.9-0.6-8.2,1.3-9,4.4c-3.2-3.1-9.9,0.6-7.9,4.2c-1.2-0.2-2.5,0.5-2.6,1.5c-1.2-0.4-2.2,0.8-1.5,1.9
	c0.1,0.1,0.2,0.1,0.3,0.1c11,0,22.1,0,33.1,0c0.1,0,0.2,0,0.2-0.1c0.1,0,0.1-0.1,0.1-0.1C321.2,272.5,319.8,271.5,318.6,271.7z"/>
<path id="XMLID_134_" class="st3" d="M452.4,136.5c0.1,0,0.1,0.1,0.2,0.1c15.4,0,30.7,0,46.1,0c0.2,0,0.4-0.1,0.5-0.3
	c0.5-2.2-2-3.9-3.7-3.1c-0.2-1.1-1.3-1.9-2.5-1.7c0.6-2-0.2-4-2.3-5c-1.9-0.9-3.7-0.2-4.9,1.3c-0.7-3.4-3.6-6.3-7.2-6.6
	c-1.9-0.1-4,0.4-5.5,1.7c-1.5,1.3-2,2.6-2.4,4.3c-1.1-1.6-2.9-2.4-5-1.7c-2.1,0.6-2.3,2.8-2.2,4.7c-1.7-1.4-3.7-2.1-5.8-0.7
	c-1.8,1.1-2.2,2.8-2.3,4.7c-1.5-0.9-3,0-3.1,2C452.2,136.3,452.3,136.5,452.4,136.5z"/>
<path id="XMLID_132_" class="st3" d="M332.3,53.8c0,0,0.1,0,0.2,0c10.4,0,20.8,0,31.1,0c0.1,0,0.3-0.1,0.3-0.2
	c0.3-1.5-1.4-2.6-2.5-2.1c-0.2-0.8-0.9-1.3-1.7-1.2c0.4-1.4-0.2-2.7-1.6-3.4c-1.3-0.6-2.5-0.1-3.3,0.9c-0.4-2.3-2.4-4.3-4.8-4.4
	c-1.3-0.1-2.7,0.3-3.7,1.1c-1,0.9-1.3,1.8-1.6,2.9c-0.8-1.1-2-1.6-3.4-1.2c-1.4,0.4-1.6,1.9-1.5,3.1c-1.1-0.9-2.5-1.4-4-0.5
	c-1.2,0.7-1.5,1.9-1.5,3.2c-1-0.6-2,0-2.1,1.4C332.1,53.6,332.2,53.7,332.3,53.8z"/>
<g id="XMLID_227_">
	<path id="XMLID_131_" class="st4" d="M546.1,304c0-0.1,0-0.2-0.1-0.3c-0.1-0.2-0.3-0.3-0.5-0.3c-7.8,0.1-15.7,0.3-23.5,0.4
		c-0.3,0-0.6,0.3-0.6,0.6c0.2,4.5-0.2,9.2,0.6,13.7c0.7,4.2,5.3,4.5,8.8,4.7c4.5,0.3,11,0.4,13.7-2C547.4,318,546.2,308.5,546.1,304
		z"/>
	<g id="XMLID_246_">
		<path id="XMLID_127_" class="st5" d="M525.4,312.9c-3.6,0-4.4-3.4-4.4-3.4c0-0.2,0.1-0.4,0.3-0.4c0.2,0,0.4,0.1,0.4,0.3
			c0,0.1,0.9,3.4,4.7,2.7c2.6-0.5,2.8-5.8,2.8-5.9c0-0.2,0.1-0.3,0.3-0.3c0.2,0,0.3,0.1,0.4,0.3c0.1,0.2,0.1,0.5,0.2,0.9
			c0.3,1.3,0.7,3.3,1.7,4.1c1.2,1,3.9,1.2,5.3,0.5c1.4-0.6,2.1-2.6,2.1-4.4c0-0.3-0.1-0.5-0.1-0.8c0-0.2,0.1-0.4,0.3-0.4
			c0.2,0,0.4,0.1,0.4,0.3c0,0.3,0.1,0.5,0.1,0.8c0.3,2,1.5,3.6,2.9,4.1c1.2,0.3,2.3-0.1,3.2-1.4c0.1-0.2,0.3-0.2,0.5-0.1
			c0.2,0.1,0.2,0.3,0.1,0.5c-1.1,1.5-2.5,2.1-4,1.7c-1.2-0.4-2.3-1.4-2.9-2.8c-0.3,1.5-1.1,2.7-2.4,3.2c-1.6,0.7-4.6,0.6-6-0.7
			c-0.8-0.7-1.3-2.1-1.7-3.4c-0.3,1.8-1.2,4.2-3.1,4.5C526.2,312.8,525.8,312.9,525.4,312.9z"/>
	</g>
	<g id="XMLID_126_">
		<path id="XMLID_62_" class="st6" d="M533.2,301.8c-2.5,0-11,0.1-11.9,2c-1.2,2.7,12.5,2.5,15.2,2.4
			C549.1,305.8,550.6,301.2,533.2,301.8z"/>
	</g>
	<g id="XMLID_241_">
		<path id="XMLID_123_" class="st5" d="M533.2,301.3c-1.4,0-13.5-0.2-12.4,3.1c0.5,1.6,3.1,1.7,4.5,1.9c3,0.4,6,0.4,9.1,0.4
			c2.7,0,5.3-0.2,8-0.6c1.2-0.2,3.7-0.6,4.3-2C547.8,300.6,534.1,301.3,533.2,301.3c-0.6,0-0.6,1,0,1c2.8-0.1,5.5-0.1,8.2,0.2
			c0.5,0,5.3,0.7,3.7,1.7c-2.9,1.9-7.5,1.6-10.9,1.6c-3.7,0-7.7,0.1-11.3-0.9c-1.7-0.5-0.6-1.5,0.6-1.8c1.2-0.4,2.5-0.5,3.8-0.6
			c1.9-0.2,3.9-0.2,5.8-0.2C533.8,302.3,533.8,301.3,533.2,301.3z"/>
	</g>
	<g id="XMLID_234_">
		<g id="XMLID_239_">
			<path id="XMLID_119_" class="st4" d="M546.2,275.1c-0.2,9.5-0.5,19.1-0.6,28.6c0,0.5,0.7,0.5,0.7,0c0.1-9.5,0.5-19.1,0.6-28.6
				C547,274.7,546.2,274.7,546.2,275.1L546.2,275.1z"/>
		</g>
		<g id="XMLID_237_">
			<path id="XMLID_117_" class="st4" d="M519.5,275c0.3,9.6,0.4,19.3,1.4,28.9c0,0.5,0.8,0.5,0.7,0c-1-9.6-1.1-19.2-1.4-28.9
				C520.2,274.5,519.5,274.5,519.5,275L519.5,275z"/>
		</g>
		<g id="XMLID_235_">
			<path id="XMLID_116_" class="st4" d="M532.5,276.6c0.8,9.7-0.2,19.5,0.6,29.2c0,0.5,0.8,0.5,0.7,0c-0.9-9.7,0.2-19.5-0.6-29.2
				C533.2,276.1,532.5,276.1,532.5,276.6L532.5,276.6z"/>
		</g>
	</g>
	<path id="XMLID_115_" class="st5" d="M583.6,192.1c-3-7.7-8.6-15.4-17.4-17c-0.1,0-0.1,0-0.2,0c-0.1,0-0.1,0-0.1,0
		c-6.5-0.7-10.4,5.9-12.7,10.9c-4.2,9-6,19.2-7.6,28.9c-3.2,19.1-6.5,40-0.9,59c0.3,1,1.7,1.2,2.3,0.3c6-9.2,18.4-12.4,26.3-19.7
		c8.3-7.7,12.5-18.9,13.8-29.8C588.3,213.5,587.7,202.6,583.6,192.1z"/>
	<path id="XMLID_110_" class="st2" d="M518.3,223c-2.9-15.7-9.8-31.4-17.7-45.4c-0.3-0.5-0.7-0.6-1.2-0.6c-0.2,0-0.4,0-0.6,0.1
		c-8,4.1-12.2,11.9-14.9,20c-2.9,8.7-4.4,19.3-3,28.4c1.7,11.8,8.4,22.2,17.2,30.2c7.2,6.6,16.1,10.9,22.5,18.4
		c0.7,0.8,2.1,0.1,2.1-0.9C522.6,256.6,521.4,239.6,518.3,223z"/>
	<path id="XMLID_109_" class="st2" d="M556.2,166c-7-3.8-15.3-4.5-23-3c-0.5,0.1-0.8,0.4-0.9,0.7c-4.7,6.7-5.4,16.1-6.1,23.9
		c-1.1,12.3-0.8,24.8-0.2,37.2c0.7,16.7,2.1,33.3,4.3,49.9c0.1,0.7,0.5,1.2,1.2,1.2c4.8,0,9.5,0,14.3,0c0.4,0,0.9-0.2,1.1-0.6
		c13.2-24.3,16.9-53.5,19.1-80.5c0.5-6.2,0.9-12.4,1-18.5C567.1,172.2,559.2,167.7,556.2,166z"/>
	<path id="XMLID_108_" class="st5" d="M536.4,167.9c-2.2-12.9-25-2.6-31.1,1.8c-5.6,4.1-7.1,7.9-7.4,14.2c-0.6,10.4,0,20.8,1.3,31.2
		c1.8,14.2,5.4,28.3,11.2,41.4c1.8,4,3.7,7.9,5.8,11.7c1,1.7,3.1,7.2,5.1,7.8c3,0.8,7.2,0,10.3,0c0.6,0,1-0.4,1.1-0.8
		c0.1-0.1,0.1-0.3,0.1-0.4c2-23.6,3.5-47.2,4.3-70.8C537.5,192.1,538.4,179.6,536.4,167.9z"/>
	<g id="XMLID_228_">
		<path id="XMLID_107_" class="st4" d="M519.1,276.5c9.2,1.7,19,1.6,28.2,0c2.6-0.5,1.5-4-1.1-3.5c-8.4,1.5-17.5,1.6-26,0
			C517.6,272.5,516.5,276.1,519.1,276.5L519.1,276.5z"/>
	</g>
</g>
<g id="XMLID_147_">
	<path id="XMLID_106_" class="st7" d="M139.3,93.5c0-0.1,0-0.1,0-0.1c0-0.1-0.1-0.1-0.2-0.1c-3.4,0.1-6.8,0.1-10.2,0.2
		c-0.1,0-0.3,0.1-0.3,0.3c0.1,2-0.1,4,0.2,5.9c0.3,1.8,2.3,2,3.8,2c2,0.1,4.8,0.2,5.9-0.9C139.8,99.5,139.3,95.4,139.3,93.5z"/>
	<g id="XMLID_203_">
		<path id="XMLID_105_" class="st8" d="M130.3,97.3c-1.5,0-1.9-1.5-1.9-1.5c0-0.1,0-0.2,0.1-0.2c0.1,0,0.2,0,0.2,0.1
			c0,0.1,0.4,1.5,2,1.2c1.1-0.2,1.2-2.5,1.2-2.6c0-0.1,0.1-0.1,0.1-0.2c0.1,0,0.1,0,0.2,0.1c0,0.1,0.1,0.2,0.1,0.4
			c0.1,0.6,0.3,1.4,0.7,1.8c0.5,0.4,1.7,0.5,2.3,0.2c0.6-0.2,0.9-1.1,0.9-1.9c0-0.1,0-0.2,0-0.4c0-0.1,0.1-0.2,0.1-0.2
			c0.1,0,0.2,0,0.2,0.1c0,0.1,0,0.2,0,0.4c0.1,0.9,0.6,1.6,1.3,1.8c0.5,0.2,1-0.1,1.4-0.6c0.1-0.1,0.1-0.1,0.2,0
			c0.1,0,0.1,0.1,0,0.2c-0.5,0.7-1.1,0.9-1.7,0.7c-0.5-0.2-1-0.6-1.3-1.2c-0.1,0.6-0.5,1.2-1,1.4c-0.7,0.3-2,0.3-2.6-0.3
			c-0.4-0.3-0.6-0.9-0.7-1.5c-0.1,0.8-0.5,1.8-1.4,2C130.6,97.3,130.5,97.3,130.3,97.3z"/>
	</g>
	<g id="XMLID_104_">
		<path id="XMLID_63_" class="st9" d="M133.7,92.5c-1.1,0-4.7,0-5.1,0.9c-0.5,1.2,5.4,1.1,6.6,1C140.6,94.2,141.2,92.2,133.7,92.5z"
			/>
	</g>
	<g id="XMLID_196_">
		<path id="XMLID_103_" class="st8" d="M133.7,92.3c-0.6,0-5.9-0.1-5.4,1.3c0.2,0.7,1.3,0.8,1.9,0.8c1.3,0.2,2.6,0.2,3.9,0.2
			c1.2,0,2.3-0.1,3.5-0.3c0.5-0.1,1.6-0.3,1.8-0.9C140,92,134.1,92.3,133.7,92.3c-0.3,0-0.3,0.4,0,0.4c1.2,0,2.4,0,3.6,0.1
			c0.2,0,2.3,0.3,1.6,0.7c-1.3,0.8-3.3,0.7-4.7,0.7c-1.6,0-3.3,0-4.9-0.4c-0.8-0.2-0.2-0.6,0.3-0.8c0.5-0.2,1.1-0.2,1.6-0.3
			c0.8-0.1,1.7-0.1,2.5-0.1C133.9,92.7,133.9,92.3,133.7,92.3z"/>
	</g>
	<g id="XMLID_177_">
		<g id="XMLID_192_">
			<path id="XMLID_102_" class="st7" d="M139.3,81c-0.1,4.1-0.2,8.3-0.3,12.4c0,0.2,0.3,0.2,0.3,0c0.1-4.1,0.2-8.3,0.3-12.4
				C139.6,80.8,139.3,80.8,139.3,81L139.3,81z"/>
		</g>
		<g id="XMLID_188_">
			<path id="XMLID_101_" class="st7" d="M127.7,80.9c0.1,4.2,0.2,8.3,0.6,12.5c0,0.2,0.3,0.2,0.3,0c-0.4-4.2-0.5-8.3-0.6-12.5
				C128,80.7,127.7,80.7,127.7,80.9L127.7,80.9z"/>
		</g>
		<g id="XMLID_184_">
			<path id="XMLID_100_" class="st7" d="M133.4,81.6c0.3,4.2-0.1,8.4,0.3,12.7c0,0.2,0.3,0.2,0.3,0c-0.4-4.2,0.1-8.4-0.3-12.7
				C133.7,81.4,133.4,81.4,133.4,81.6L133.4,81.6z"/>
		</g>
	</g>
	<path id="XMLID_96_" class="st10" d="M155.5,45c-1.3-3.3-3.7-6.7-7.5-7.4c0,0-0.1,0-0.1,0c0,0,0,0-0.1,0c-2.8-0.3-4.5,2.5-5.5,4.7
		c-1.8,3.9-2.6,8.3-3.3,12.5c-1.4,8.3-2.8,17.3-0.4,25.5c0.1,0.5,0.7,0.5,1,0.1c2.6-4,8-5.4,11.4-8.5c3.6-3.3,5.4-8.2,6-12.9
		C157.6,54.3,157.3,49.5,155.5,45z"/>
	<path id="XMLID_89_" class="st11" d="M127.2,58.4c-1.3-6.8-4.2-13.6-7.7-19.6c-0.1-0.2-0.3-0.3-0.5-0.3c-0.1,0-0.2,0-0.2,0.1
		c-3.5,1.8-5.3,5.2-6.5,8.7c-1.2,3.8-1.9,8.4-1.3,12.3c0.7,5.1,3.6,9.6,7.4,13.1c3.1,2.9,7,4.7,9.8,8c0.3,0.4,0.9,0.1,0.9-0.4
		C129.1,72.9,128.6,65.6,127.2,58.4z"/>
	<path id="XMLID_87_" class="st11" d="M143.7,33.7c-3-1.7-6.6-1.9-10-1.3c-0.2,0-0.3,0.2-0.4,0.3c-2,2.9-2.3,7-2.6,10.4
		c-0.5,5.3-0.3,10.7-0.1,16.1c0.3,7.2,0.9,14.4,1.8,21.6c0,0.3,0.2,0.5,0.5,0.5c2.1,0,4.1,0,6.2,0c0.2,0,0.4-0.1,0.5-0.3
		c5.7-10.5,7.3-23.2,8.3-34.9c0.2-2.7,0.4-5.4,0.4-8C148.4,36.4,144.9,34.4,143.7,33.7z"/>
	<path id="XMLID_85_" class="st10" d="M135.1,34.5c-1-5.6-10.9-1.1-13.5,0.8c-2.4,1.8-3.1,3.4-3.2,6.1c-0.3,4.5,0,9,0.6,13.5
		c0.8,6.1,2.3,12.2,4.8,17.9c0.8,1.7,1.6,3.4,2.5,5.1c0.4,0.8,1.3,3.1,2.2,3.4c1.3,0.4,3.1,0,4.5,0c0.3,0,0.4-0.2,0.5-0.4
		c0-0.1,0-0.1,0-0.2c0.9-10.2,1.5-20.4,1.9-30.7C135.6,45,136,39.6,135.1,34.5z"/>
	<g id="XMLID_148_">
		<path id="XMLID_83_" class="st7" d="M127.6,81.6c4,0.7,8.2,0.7,12.2,0c1.1-0.2,0.7-1.7-0.5-1.5c-3.7,0.6-7.6,0.7-11.3,0
			C126.9,79.8,126.5,81.4,127.6,81.6L127.6,81.6z"/>
	</g>
</g>
<g id="XMLID_10_">
	<path id="XMLID_16_" class="st12" d="M275.4,211c-0.1-0.1-0.1-0.1-0.1-0.2v-9.3c0-0.1,0-0.2,0.1-0.3c0.1-0.1,0.1-0.1,0.2-0.1h3.8
		c1.1,0,2,0.3,2.7,0.8c0.7,0.5,1,1.3,1,2.4c0,1-0.3,1.8-1,2.3c-0.7,0.5-1.6,0.8-2.7,0.8h-2.1v3.3c0,0.1,0,0.2-0.1,0.2
		c-0.1,0.1-0.2,0.1-0.3,0.1h-1.4C275.5,211.1,275.4,211.1,275.4,211z M279.4,205.9c0.5,0,1-0.1,1.3-0.4c0.3-0.3,0.4-0.6,0.4-1.1
		c0-0.5-0.1-0.9-0.4-1.2c-0.3-0.3-0.7-0.4-1.3-0.4h-2v3.1H279.4z"/>
	<path id="XMLID_191_" class="st12" d="M285.3,211.1c-0.1-0.1-0.1-0.1-0.1-0.2l0-0.1l3.4-9.2c0.1-0.2,0.3-0.4,0.5-0.4h1.6
		c0.2,0,0.4,0.1,0.5,0.4l3.4,9.2l0,0.1c0,0.1,0,0.2-0.1,0.2c-0.1,0.1-0.1,0.1-0.2,0.1h-1.3c-0.2,0-0.3-0.1-0.4-0.3l-0.7-1.7h-4.2
		l-0.7,1.7c-0.1,0.2-0.2,0.3-0.4,0.3h-1.3C285.5,211.1,285.4,211.1,285.3,211.1z M288.4,207.5h3.2l-1.6-4.4L288.4,207.5z"/>
	<path id="XMLID_200_" class="st12" d="M298.8,210.3c-0.7-0.7-1.1-1.6-1.2-2.8c0-0.3,0-0.7,0-1.3c0-0.6,0-1,0-1.3
		c0-1.2,0.4-2.1,1.2-2.8c0.7-0.7,1.8-1,3-1c0.9,0,1.6,0.1,2.3,0.4s1.1,0.7,1.4,1.1c0.3,0.4,0.5,0.9,0.5,1.3c0,0.1,0,0.2-0.1,0.2
		c-0.1,0.1-0.1,0.1-0.2,0.1h-1.5c-0.1,0-0.2,0-0.2-0.1c0,0-0.1-0.1-0.1-0.2c-0.1-0.4-0.4-0.6-0.7-0.9c-0.3-0.2-0.8-0.4-1.4-0.4
		c-0.7,0-1.2,0.2-1.6,0.5c-0.4,0.4-0.6,0.9-0.6,1.7c0,0.3,0,0.7,0,1.3c0,0.6,0,1,0,1.3c0,0.8,0.2,1.3,0.6,1.7
		c0.4,0.4,0.9,0.5,1.6,0.5c0.7,0,1.2-0.2,1.6-0.5c0.4-0.4,0.6-0.9,0.6-1.6V207h-1.7c-0.1,0-0.2,0-0.2-0.1c-0.1-0.1-0.1-0.1-0.1-0.2
		v-0.8c0-0.1,0-0.2,0.1-0.2c0.1-0.1,0.1-0.1,0.2-0.1h3.4c0.1,0,0.2,0,0.3,0.1c0.1,0.1,0.1,0.1,0.1,0.2v1.5c0,0.8-0.2,1.5-0.5,2.1
		c-0.4,0.6-0.8,1-1.5,1.3c-0.6,0.3-1.4,0.5-2.3,0.5C300.5,211.3,299.5,210.9,298.8,210.3z"/>
	<path id="XMLID_204_" class="st12" d="M310.2,211c-0.1-0.1-0.1-0.1-0.1-0.2v-9.3c0-0.1,0-0.2,0.1-0.3c0.1-0.1,0.1-0.1,0.2-0.1h6.3
		c0.1,0,0.2,0,0.3,0.1c0.1,0.1,0.1,0.2,0.1,0.3v1c0,0.1,0,0.2-0.1,0.2c-0.1,0.1-0.2,0.1-0.3,0.1H312v2.5h4.4c0.1,0,0.2,0,0.3,0.1
		c0.1,0.1,0.1,0.2,0.1,0.3v0.9c0,0.1,0,0.2-0.1,0.2c-0.1,0.1-0.2,0.1-0.3,0.1H312v2.6h4.8c0.1,0,0.2,0,0.3,0.1
		c0.1,0.1,0.1,0.1,0.1,0.2v1c0,0.1,0,0.2-0.1,0.2c-0.1,0.1-0.2,0.1-0.3,0.1h-6.4C310.3,211.1,310.2,211.1,310.2,211z"/>
	<path id="XMLID_207_" class="st12" d="M326.6,211c-0.1-0.1-0.1-0.1-0.1-0.2v-9.3c0-0.1,0-0.2,0.1-0.3c0.1-0.1,0.1-0.1,0.2-0.1h1.1
		c0.2,0,0.3,0.1,0.4,0.2l4.1,6.3v-6.2c0-0.1,0-0.2,0.1-0.3c0.1-0.1,0.1-0.1,0.2-0.1h1.2c0.1,0,0.2,0,0.3,0.1
		c0.1,0.1,0.1,0.2,0.1,0.3v9.2c0,0.1,0,0.2-0.1,0.3c-0.1,0.1-0.1,0.1-0.2,0.1h-1.1c-0.2,0-0.3-0.1-0.4-0.2l-4.1-6.2v6.1
		c0,0.1,0,0.2-0.1,0.2c-0.1,0.1-0.1,0.1-0.2,0.1h-1.2C326.7,211.1,326.6,211.1,326.6,211z"/>
	<path id="XMLID_209_" class="st12" d="M339.5,210.3c-0.7-0.7-1.1-1.6-1.1-2.9c0-0.3,0-0.7,0-1.2c0-0.5,0-0.9,0-1.2
		c0-1.3,0.4-2.2,1.2-2.9s1.7-1,3-1c1.3,0,2.3,0.3,3,1c0.7,0.7,1.1,1.6,1.2,2.9c0,0.6,0,1,0,1.2c0,0.3,0,0.7,0,1.2
		c0,1.3-0.4,2.3-1.1,2.9c-0.7,0.7-1.7,1-3,1C341.2,211.3,340.2,211,339.5,210.3z M344,209.1c0.4-0.4,0.6-1,0.6-1.7c0-0.6,0-1,0-1.2
		c0-0.2,0-0.6,0-1.2c0-0.8-0.2-1.4-0.6-1.7c-0.4-0.4-0.9-0.6-1.5-0.6c-0.6,0-1.1,0.2-1.5,0.6c-0.4,0.4-0.6,1-0.6,1.7
		c0,0.3,0,0.7,0,1.2c0,0.5,0,0.9,0,1.2c0,0.8,0.2,1.4,0.6,1.7c0.4,0.4,0.9,0.6,1.5,0.6S343.6,209.4,344,209.1z"/>
	<path id="XMLID_212_" class="st12" d="M352.8,211c-0.1-0.1-0.1-0.1-0.1-0.2V203H350c-0.1,0-0.2,0-0.2-0.1c-0.1-0.1-0.1-0.2-0.1-0.3
		v-1.1c0-0.1,0-0.2,0.1-0.3c0.1-0.1,0.1-0.1,0.2-0.1h7.3c0.1,0,0.2,0,0.3,0.1c0.1,0.1,0.1,0.2,0.1,0.3v1.1c0,0.1,0,0.2-0.1,0.3
		c-0.1,0.1-0.2,0.1-0.3,0.1h-2.6v7.8c0,0.1,0,0.2-0.1,0.2c-0.1,0.1-0.1,0.1-0.2,0.1H353C352.9,211.1,352.8,211.1,352.8,211z"/>
	<path id="XMLID_214_" class="st12" d="M366.4,211c-0.1-0.1-0.1-0.1-0.1-0.2v-9.3c0-0.1,0-0.2,0.1-0.3c0.1-0.1,0.1-0.1,0.2-0.1h6.2
		c0.1,0,0.2,0,0.3,0.1c0.1,0.1,0.1,0.2,0.1,0.3v1c0,0.1,0,0.2-0.1,0.2c-0.1,0.1-0.2,0.1-0.3,0.1h-4.6v2.7h4.3c0.1,0,0.2,0,0.3,0.1
		c0.1,0.1,0.1,0.1,0.1,0.2v1c0,0.1,0,0.2-0.1,0.2c-0.1,0.1-0.2,0.1-0.3,0.1h-4.3v3.5c0,0.1,0,0.2-0.1,0.2c-0.1,0.1-0.2,0.1-0.3,0.1
		h-1.3C366.5,211.1,366.4,211.1,366.4,211z"/>
	<path id="XMLID_216_" class="st12" d="M377.7,210.3c-0.7-0.7-1.1-1.6-1.1-2.9c0-0.3,0-0.7,0-1.2c0-0.5,0-0.9,0-1.2
		c0-1.3,0.4-2.2,1.2-2.9s1.7-1,3-1c1.3,0,2.3,0.3,3,1c0.7,0.7,1.1,1.6,1.2,2.9c0,0.6,0,1,0,1.2c0,0.3,0,0.7,0,1.2
		c0,1.3-0.4,2.3-1.1,2.9c-0.7,0.7-1.7,1-3,1C379.5,211.3,378.4,211,377.7,210.3z M382.3,209.1c0.4-0.4,0.6-1,0.6-1.7
		c0-0.6,0-1,0-1.2c0-0.2,0-0.6,0-1.2c0-0.8-0.2-1.4-0.6-1.7c-0.4-0.4-0.9-0.6-1.5-0.6c-0.6,0-1.1,0.2-1.5,0.6
		c-0.4,0.4-0.6,1-0.6,1.7c0,0.3,0,0.7,0,1.2c0,0.5,0,0.9,0,1.2c0,0.8,0.2,1.4,0.6,1.7c0.4,0.4,0.9,0.6,1.5,0.6
		S381.9,209.4,382.3,209.1z"/>
	<path id="XMLID_219_" class="st12" d="M389.9,210.3c-0.7-0.7-1.1-1.6-1.1-3v-5.8c0-0.1,0-0.2,0.1-0.3c0.1-0.1,0.1-0.1,0.2-0.1h1.3
		c0.1,0,0.2,0,0.3,0.1c0.1,0.1,0.1,0.2,0.1,0.3v5.8c0,0.7,0.2,1.3,0.5,1.7c0.4,0.4,0.9,0.6,1.5,0.6c0.7,0,1.2-0.2,1.5-0.6
		c0.4-0.4,0.5-0.9,0.5-1.7v-5.8c0-0.1,0-0.2,0.1-0.3c0.1-0.1,0.2-0.1,0.3-0.1h1.3c0.1,0,0.2,0,0.2,0.1c0.1,0.1,0.1,0.2,0.1,0.3v5.8
		c0,1.3-0.4,2.3-1.1,3c-0.7,0.7-1.7,1-3,1C391.6,211.3,390.6,211,389.9,210.3z"/>
	<path id="XMLID_221_" class="st12" d="M401.3,211c-0.1-0.1-0.1-0.1-0.1-0.2v-9.3c0-0.1,0-0.2,0.1-0.3c0.1-0.1,0.1-0.1,0.2-0.1h1.1
		c0.2,0,0.3,0.1,0.4,0.2l4.1,6.3v-6.2c0-0.1,0-0.2,0.1-0.3c0.1-0.1,0.1-0.1,0.2-0.1h1.2c0.1,0,0.2,0,0.3,0.1
		c0.1,0.1,0.1,0.2,0.1,0.3v9.2c0,0.1,0,0.2-0.1,0.3c-0.1,0.1-0.1,0.1-0.2,0.1h-1.1c-0.2,0-0.3-0.1-0.4-0.2l-4.1-6.2v6.1
		c0,0.1,0,0.2-0.1,0.2c-0.1,0.1-0.1,0.1-0.2,0.1h-1.2C401.5,211.1,401.4,211.1,401.3,211z"/>
	<path id="XMLID_223_" class="st12" d="M413.5,211c-0.1-0.1-0.1-0.1-0.1-0.2v-9.3c0-0.1,0-0.2,0.1-0.3c0.1-0.1,0.1-0.1,0.2-0.1h3.5
		c2.8,0,4.2,1.3,4.3,3.9c0,0.6,0,0.9,0,1.1c0,0.2,0,0.5,0,1.1c0,1.3-0.4,2.3-1.1,2.9c-0.7,0.6-1.7,0.9-3.1,0.9h-3.5
		C413.7,211.1,413.6,211.1,413.5,211z M417.2,209.5c0.8,0,1.4-0.2,1.7-0.5c0.4-0.4,0.5-0.9,0.6-1.7c0-0.6,0-0.9,0-1.1
		c0-0.2,0-0.5,0-1.1c0-0.8-0.2-1.3-0.6-1.7c-0.4-0.4-1-0.5-1.7-0.5h-1.7v6.7H417.2z"/>
</g>
<g id="XMLID_9_">
	<g id="XMLID_205_">
		<path id="XMLID_236_" class="st13" d="M299.7,192.3c-0.4-0.4-0.6-0.8-0.6-1.4v-10.3h-25.5c-0.5,0-1-0.2-1.4-0.6
			c-0.4-0.4-0.6-0.8-0.6-1.4v-5.5c0-0.9,0.3-1.7,0.9-2.4l23.7-32.8c0.3-0.4,0.7-0.8,1.2-1c0.5-0.2,1.1-0.4,1.8-0.4h8.8
			c0.6,0,1.1,0.2,1.4,0.5c0.3,0.3,0.5,0.8,0.5,1.4v32.5h7.2c0.6,0,1.1,0.2,1.4,0.5c0.3,0.3,0.5,0.8,0.5,1.4v5.7c0,0.5-0.2,1-0.5,1.4
			c-0.3,0.4-0.8,0.6-1.4,0.6H310v10.3c0,0.5-0.2,1-0.5,1.4c-0.3,0.4-0.8,0.6-1.4,0.6H301C300.5,192.8,300,192.7,299.7,192.3z
			 M283,171.4h16.3v-23.1L283,171.4z"/>
		<path id="XMLID_231_" class="st13" d="M332.2,187.7c-3.5-4-5.4-9.2-5.7-15.6c-0.1-1.4-0.1-3.9-0.1-7.4c0-3.5,0-6.1,0.1-7.6
			c0.3-6.3,2.2-11.5,5.8-15.4c3.6-4,8.9-5.9,16-5.9c7.1,0,12.4,2,16,5.9c3.6,4,5.5,9.1,5.8,15.4c0.1,3,0.2,5.5,0.2,7.6
			c0,2-0.1,4.5-0.2,7.4c-0.3,6.4-2.2,11.6-5.7,15.6c-3.5,4-8.9,5.9-16,5.9C341,193.6,335.7,191.7,332.2,187.7z M355.7,181
			c1.7-2.2,2.5-5.3,2.7-9.3c0.1-1.6,0.1-3.9,0.1-7.2c0-3.2,0-5.5-0.1-7c-0.1-3.9-1-7-2.7-9.2c-1.7-2.2-4.2-3.3-7.5-3.4
			c-3.3,0.1-5.8,1.2-7.5,3.4c-1.7,2.2-2.5,5.3-2.7,9.2c-0.1,1.4-0.1,3.8-0.1,7c0,3.2,0,5.6,0.1,7.2c0.1,4,1,7.1,2.7,9.3
			c1.7,2.2,4.1,3.3,7.5,3.3C351.5,184.2,354,183.2,355.7,181z"/>
		<path id="XMLID_226_" class="st13" d="M405.1,192.3c-0.4-0.4-0.6-0.8-0.6-1.4v-10.3h-25.5c-0.5,0-1-0.2-1.4-0.6
			c-0.4-0.4-0.6-0.8-0.6-1.4v-5.5c0-0.9,0.3-1.7,0.9-2.4l23.7-32.8c0.3-0.4,0.7-0.8,1.2-1c0.5-0.2,1.1-0.4,1.8-0.4h8.8
			c0.6,0,1.1,0.2,1.4,0.5c0.3,0.3,0.5,0.8,0.5,1.4v32.5h7.2c0.6,0,1.1,0.2,1.4,0.5c0.3,0.3,0.5,0.8,0.5,1.4v5.7c0,0.5-0.2,1-0.5,1.4
			c-0.3,0.4-0.8,0.6-1.4,0.6h-7.2v10.3c0,0.5-0.2,1-0.5,1.4c-0.3,0.4-0.8,0.6-1.4,0.6h-7.1C405.9,192.8,405.5,192.7,405.1,192.3z
			 M388.5,171.4h16.3v-23.1L388.5,171.4z"/>
	</g>
</g>
<g id="XMLID_90_">
	<path id="XMLID_91_" class="st12" d="M318.5,124.4c-1.1-1-1.7-2.6-1.8-4.6c0-0.4,0-1.1,0-1.9c0-0.9,0-1.5,0-1.9
		c0.1-2,0.7-3.5,1.9-4.6c1.2-1.1,2.8-1.6,4.8-1.6c2,0,3.6,0.5,4.8,1.6c1.2,1.1,1.8,2.6,1.9,4.6c0,0.9,0,1.5,0,1.9c0,0.4,0,1,0,1.9
		c-0.1,2-0.7,3.6-1.8,4.6c-1.2,1-2.8,1.6-4.8,1.6C321.2,125.9,319.6,125.4,318.5,124.4z M325.7,122.4c0.6-0.6,0.9-1.5,0.9-2.8
		c0-0.9,0-1.5,0-1.8c0-0.3,0-1,0-1.8c0-1.2-0.4-2.2-1-2.8c-0.6-0.6-1.4-0.9-2.4-0.9c-1,0-1.8,0.3-2.4,0.9c-0.6,0.6-0.9,1.5-0.9,2.8
		c0,0.4,0,1,0,1.8c0,0.8,0,1.4,0,1.8c0,1.2,0.3,2.2,0.9,2.8c0.6,0.6,1.4,0.9,2.4,0.9C324.3,123.3,325.1,123,325.7,122.4z"/>
	<path id="XMLID_95_" class="st12" d="M334.9,124.6c-1-0.9-1.5-2.2-1.6-3.8l0-1l0-1c0.1-1.6,0.6-2.8,1.6-3.7c1-0.9,2.3-1.4,4.1-1.4
		c1.7,0,3.1,0.5,4.1,1.4c1,0.9,1.5,2.2,1.6,3.7c0,0.2,0,0.5,0,1c0,0.5,0,0.8,0,1c-0.1,1.6-0.6,2.8-1.6,3.8c-1,0.9-2.3,1.4-4.1,1.4
		C337.2,125.9,335.8,125.5,334.9,124.6z M340.8,122.9c0.4-0.5,0.7-1.2,0.7-2.2c0-0.2,0-0.4,0-0.9c0-0.4,0-0.7,0-0.9
		c0-1-0.3-1.7-0.7-2.2c-0.4-0.5-1-0.8-1.8-0.8c-0.8,0-1.4,0.3-1.9,0.8c-0.4,0.5-0.7,1.2-0.7,2.2l0,0.9l0,0.9c0,1,0.3,1.7,0.7,2.2
		c0.4,0.5,1.1,0.7,1.9,0.7C339.8,123.7,340.4,123.4,340.8,122.9z"/>
	<path id="XMLID_159_" class="st12" d="M348.5,129.9c-0.1-0.1-0.2-0.2-0.2-0.4v-15c0-0.2,0.1-0.3,0.2-0.4c0.1-0.1,0.2-0.1,0.4-0.1
		h1.8c0.2,0,0.3,0.1,0.4,0.2c0.1,0.1,0.2,0.2,0.2,0.4v0.9c0.8-1.1,2-1.7,3.6-1.7c1.5,0,2.7,0.5,3.5,1.4c0.8,1,1.3,2.2,1.3,3.9
		c0,0.2,0,0.5,0,0.8s0,0.6,0,0.8c0,1.6-0.5,2.9-1.3,3.8c-0.8,1-2,1.5-3.5,1.5c-1.5,0-2.7-0.5-3.5-1.6v5.1c0,0.2,0,0.3-0.1,0.4
		c-0.1,0.1-0.2,0.1-0.4,0.1h-2C348.7,130,348.6,130,348.5,129.9z M356.5,120.5c0-0.2,0-0.4,0-0.7c0-0.3,0-0.5,0-0.7
		c-0.1-2-1-3-2.6-3c-0.9,0-1.5,0.3-1.9,0.8c-0.4,0.6-0.6,1.2-0.7,2c0,0.2,0,0.5,0,0.9c0,0.4,0,0.7,0,0.9c0,0.8,0.3,1.4,0.7,1.9
		c0.4,0.5,1.1,0.8,1.9,0.8C355.6,123.5,356.4,122.5,356.5,120.5z"/>
	<path id="XMLID_169_" class="st12" d="M364.9,125.4c-0.8-0.3-1.3-0.7-1.7-1.2c-0.4-0.5-0.6-0.9-0.6-1.2c0-0.2,0-0.3,0.1-0.4
		c0.1-0.1,0.2-0.1,0.4-0.1h1.9c0.1,0,0.2,0.1,0.3,0.2c0.1,0.1,0.2,0.2,0.5,0.4c0.3,0.2,0.6,0.4,0.9,0.5c0.3,0.1,0.7,0.2,1.1,0.2
		c0.6,0,1.1-0.1,1.5-0.4c0.4-0.2,0.6-0.6,0.6-1c0-0.3-0.1-0.5-0.3-0.7c-0.2-0.2-0.5-0.4-0.9-0.5c-0.4-0.2-1.1-0.3-2-0.5
		c-1.3-0.3-2.2-0.7-2.8-1.2s-0.9-1.3-0.9-2.2c0-0.6,0.2-1.2,0.5-1.7c0.4-0.5,0.9-1,1.6-1.3c0.7-0.3,1.6-0.5,2.6-0.5
		c1,0,1.9,0.2,2.6,0.5c0.7,0.3,1.3,0.7,1.7,1.2c0.4,0.5,0.6,0.9,0.6,1.2c0,0.1,0,0.3-0.1,0.4c-0.1,0.1-0.2,0.1-0.4,0.1h-1.7
		c-0.2,0-0.3-0.1-0.4-0.2c-0.1-0.1-0.3-0.2-0.5-0.4c-0.2-0.2-0.5-0.4-0.8-0.5c-0.3-0.1-0.6-0.2-1-0.2c-0.6,0-1,0.1-1.3,0.4
		c-0.3,0.2-0.5,0.6-0.5,0.9c0,0.3,0.1,0.5,0.2,0.7c0.1,0.2,0.4,0.4,0.9,0.5c0.4,0.2,1.1,0.3,2,0.5c2.7,0.5,4.1,1.7,4.1,3.5
		c0,1.1-0.5,1.9-1.4,2.6c-0.9,0.7-2.2,1-3.9,1C366.6,125.9,365.7,125.8,364.9,125.4z"/>
	<path id="XMLID_171_" class="st12" d="M376.6,125.6c-0.1-0.1-0.2-0.2-0.2-0.4V123c0-0.2,0.1-0.3,0.2-0.4c0.1-0.1,0.2-0.1,0.4-0.1
		h2.1c0.2,0,0.3,0.1,0.4,0.2c0.1,0.1,0.2,0.2,0.2,0.4v2.1c0,0.2-0.1,0.3-0.2,0.4c-0.1,0.1-0.2,0.2-0.4,0.2h-2.1
		C376.8,125.7,376.7,125.7,376.6,125.6z M376.7,121.2c-0.1-0.1-0.2-0.2-0.2-0.4v-10.3c0-0.2,0.1-0.3,0.2-0.4s0.2-0.1,0.4-0.1h1.9
		c0.2,0,0.3,0.1,0.4,0.2c0.1,0.1,0.2,0.2,0.2,0.4v10.3c0,0.2-0.1,0.3-0.2,0.4c-0.1,0.1-0.2,0.2-0.4,0.2h-1.9
		C376.9,121.3,376.8,121.3,376.7,121.2z"/>
</g>
</svg>
