<?xml version="1.0" encoding="utf-8"?>
<!-- Generator: Adobe Illustrator 19.0.0, SVG Export Plug-In . SVG Version: 6.00 Build 0)  -->
<svg version="1.1" id="Isolation_Mode" xmlns="http://www.w3.org/2000/svg" xmlns:xlink="http://www.w3.org/1999/xlink" x="0px"
	 y="0px" viewBox="34 147 680 408" style="enable-background:new 34 147 680 408;" xml:space="preserve">
<style type="text/css">
	.st0{opacity:0.17;fill:#41709E;}
	.st1{fill:#41709E;}
	.st2{fill:#FAFAFA;}
	.st3{fill:#00ACCB;}
	.st4{fill:#76EFF8;}
	.st5{fill:#CDD2D2;}
	.st6{fill:#CCDBEA;}
	.st7{fill:#A285F8;}
	.st8{fill:#EDEDED;}
	.st9{fill:#E37296;}
	.st10{fill:#F7974B;}
	.st11{fill:#60B0E1;}
	.st12{fill:#FFFFFF;}
	.st13{fill:#7CE3E1;}
	.st14{fill:none;}
	.st15{fill:#FFC477;}
	.st16{fill:#E4EDED;}
	.st17{fill:#FEAF66;}
	.st18{fill:#6C5FB7;}
	.st19{fill:#F4E7C9;}
	.st20{fill:#0FA593;}
	.st21{fill:#FFDF77;}
	.st22{fill:#EACFAC;}
	.st23{fill:#D8BA7C;}
	.st24{fill:#42222F;}
</style>
<g>
	<ellipse class="st0" cx="383" cy="481.7" rx="244.4" ry="16.6"/>
	<g>
		<g>
			<path class="st1" d="M197.3,448.8c2.3-3.2,4.4-7.3,3.1-13.1c-1.4-6.2-6.1-11.4-10.5-16.1c-5.8-6.1-10.5-11.6-12-19.6
				c-1.1-5.7-0.9-11.4-3.8-17.5c-3.3-7-9.7-11.9-15.3-14.7c-6.6-3.2-13.2-4.2-19.9-8.9c-4-2.9-7.2-6.6-9.5-11.4
				c-1.6-3.5-2.8-7-4.5-10.5c-5.4-11.2-15.9-17.6-22.5-14.8c-7,0.8-10.8,8.3-7.5,19c2.6,8.5,9.1,14.9,14.5,22.1
				c5.8,7.8,7,14.5,7.4,22.2c0.3,5.2,0.5,10.7,3,16.4c2.5,5.8,7,10.2,11.4,14.1c5.4,4.8,12.1,9.6,15.2,16.9c1.6,4,2.1,7.9,3.9,11.8
				c1.2,2.7,2.9,5.3,4.8,7.6c10.4,12.4,22.8,12.8,30.5,8C190.2,457.6,194,453.3,197.3,448.8z"/>
		</g>
		<path class="st2" d="M128.9,402.9c7.9,2.3,15.8,4.6,23.7,6.8c-8.4-11.4-16.3-23.2-23.7-35.3c-0.2,0.2-0.4,0.3-0.8,0.2
			c-3.7-1.3-7.3-2.6-11-3.9c-0.9-0.3-0.4-1.7,0.5-1.4c3.4,1.2,6.9,2.4,10.3,3.6c-5.2-8.6-10.2-17.4-14.9-26.4c0,0,0,0,0,0
			c-3.8-1.6-7.6-3.2-11.4-4.7c-0.9-0.4-0.4-1.8,0.5-1.4c3.3,1.4,6.5,2.7,9.8,4.1c-1.5-2.9-3-5.9-4.5-8.8c-0.4-0.9,0.9-1.5,1.4-0.6
			c3.7,7.4,7.5,14.7,11.5,21.9c0.5-4,0.7-8,0.5-12c0-1,1.4-1.2,1.5-0.2c0.2,4.7,0,9.5-0.7,14.2c0,0.1,0,0.1-0.1,0.2
			c6.8,12.1,14.1,23.8,21.9,35.3c0.8-7.7,0.9-15.4,0.1-23.2c-0.1-1,1.4-1.2,1.5-0.2c0.8,8.4,0.7,16.9-0.3,25.3
			c7.8,11.3,16,22.3,24.7,33c0-6.5,0.1-12.9,0.1-19.4c0-1,1.5-0.8,1.5,0.2c0,7-0.1,14-0.1,21.1c8.8,10.6,17.9,20.9,27.6,30.8
			c0.7,0.7-0.5,1.6-1.2,0.9c-7.2-7.4-14.2-15.1-20.9-22.9c-0.1,0-0.3,0-0.4,0c-7.2-1.8-14.5-3.6-21.7-5.3c-0.9-0.2-0.4-1.6,0.5-1.4
			c6.7,1.6,13.4,3.3,20,4.9c-7.3-8.6-14.3-17.4-20.9-26.4c-8.6-2.5-17.1-4.9-25.7-7.4C127.5,404,128,402.6,128.9,402.9z"/>
	</g>
	<g>
		<g>
			<path class="st3" d="M67.8,441.2c30.1,28.3,72.7,41.6,113.6,35.7c1.3-0.2-0.8-2.3-0.9-2.5c-25.7-34.5-71.5-48.7-112.2-34.8
				C67.6,439.8,67.2,440.6,67.8,441.2z"/>
		</g>
		<path class="st2" d="M79.9,441.2c26.4,9,52.8,18,79.2,27c-6.3-5.9-12.7-11.7-19-17.6c-0.6-0.6,0.2-1.7,0.9-1.1
			c7.1,6.6,14.2,13.2,21.3,19.7c8.1,2.8,16.3,5.5,24.4,8.3c0.8,0.3,0.3,1.5-0.6,1.3c-8-2.7-16-5.4-24-8.2c-0.2,0-0.4,0-0.5-0.2
			c0,0,0,0,0,0c-27.4-9.3-54.8-18.7-82.3-28C78.5,442.2,79.1,441,79.9,441.2z"/>
		<path class="st2" d="M110.7,442.1c-0.7-0.6,0.2-1.6,0.9-1.1c6.3,5.3,12.6,10.5,18.9,15.8c0.7,0.6-0.2,1.6-0.9,1.1
			C123.3,452.7,117,447.4,110.7,442.1z"/>
		<path class="st2" d="M90.6,453.8c5-0.8,9.9-1.6,14.9-2.3c-5.9-4.3-11.8-8.7-17.7-13c-0.7-0.5,0.2-1.6,0.9-1.1
			c6.2,4.6,12.5,9.2,18.7,13.8c0.7,0.5-0.1,1.5-0.8,1.1c-0.1,0.3-0.2,0.5-0.6,0.5l-15.3,2.4C89.8,455.3,89.7,454,90.6,453.8z"/>
		<path class="st2" d="M112.1,463.9l16.3-5.6c0.8-0.3,1.3,1,0.5,1.3l-16.3,5.6C111.8,465.5,111.3,464.2,112.1,463.9z"/>
		<path class="st2" d="M143.2,471.7c5.3-0.4,10.4-1.4,15.4-3.1c0.8-0.3,1.3,1,0.5,1.3c-5.1,1.7-10.4,2.8-15.8,3.2
			C142.4,473.1,142.3,471.8,143.2,471.7z"/>
	</g>
	<g>
		<g>
			<path class="st4" d="M175.1,459.3c1.4-3,2.4-6.7,0.5-11.2c-2.1-4.8-6.8-8.4-11.1-11.6c-5.7-4.1-10.4-7.9-12.9-14.2
				c-1.8-4.5-2.5-9.2-5.8-13.7c-3.8-5.2-9.8-8.2-14.8-9.6c-5.9-1.6-11.5-1.4-17.7-4.2c-3.7-1.7-6.9-4.3-9.5-7.9
				c-1.9-2.6-3.4-5.3-5.3-7.9c-6.2-8.3-15.7-11.9-20.7-8.6c-5.6,1.8-7.5,8.5-3.2,16.7c3.5,6.6,9.8,10.7,15.3,15.8
				c6,5.5,8,10.8,9.5,17c1.1,4.2,2.1,8.7,5,13c3,4.3,7.3,7.3,11.6,9.8c5.2,3,11.4,5.9,15.1,11.5c2,3,3,6.1,5,9.1
				c1.4,2,3.2,3.9,5.1,5.4c10.4,8.5,20.7,6.9,26.2,1.8C170.6,467.5,173.1,463.4,175.1,459.3z"/>
		</g>
		<path class="st2" d="M83.2,383.3c8.4,7.5,16.7,15.1,25.1,22.6c-1.6-4.3-3.2-8.6-4.9-13c-0.3-0.8,1-1.2,1.3-0.4l5.6,14.9
			c0,0.1,0,0.2,0,0.3c7,6.4,13.9,12.8,20.8,19.2c-1.5-7.6-3-15.2-4.5-22.8c-0.2-0.9,1.2-1.2,1.3-0.4c1.6,8.1,3.2,16.2,4.8,24.3
			c0,0.1,0,0.2,0,0.3c6.4,6,12.8,11.9,19.2,17.9c-1.5-6.3-3-12.5-4.5-18.8c-0.2-0.9,1.1-1.2,1.3-0.4c1.7,7,3.3,13.9,5,20.9
			c4.3,4,8.5,8.1,12.8,12.1l-4.7-18.9c-0.2-0.9,1.1-1.2,1.3-0.4c1.6,6.4,3.2,12.7,4.7,19.1c0.1,0.4-0.2,0.7-0.5,0.8
			c0,0.1,0,0.1,0,0.2c4.9,4.7,9.8,9.3,14.6,14c0.6,0.6-0.3,1.6-1,1c-4.9-4.7-9.9-9.5-14.8-14.2c-6.6,0.7-13.1,1-19.7,0.8
			c-0.9,0-0.9-1.4,0-1.4c6.2,0.1,12.3-0.1,18.4-0.7c-4-3.8-7.9-7.5-11.9-11.3c-0.2,0-0.5-0.2-0.6-0.5c0,0,0,0,0,0
			c-0.2-0.2-0.4-0.4-0.6-0.5c-6.7-0.1-13.3-0.1-20-0.2c-0.9,0-0.9-1.4,0-1.4c6.2,0.1,12.3,0.1,18.5,0.2c-6.3-5.9-12.6-11.9-19-17.7
			c-7.2-0.1-14.4-0.3-21.6-0.5c-0.9,0-0.9-1.4,0-1.4c6.7,0.1,13.4,0.3,20.1,0.4c-7-6.5-14.1-13-21.2-19.5c-0.1,0.1-0.2,0.1-0.4,0.1
			l-10.4,0c-0.9,0-0.9-1.4,0-1.4c3.1,0,6.2,0,9.3,0c-8.4-7.6-16.8-15.2-25.2-22.8C81.6,383.7,82.6,382.7,83.2,383.3z"/>
	</g>
	<g>
		<g>
			<path class="st3" d="M558.9,453.9c-3.2-2.3-6.5-5.5-7.1-11.4c-0.6-6.3,2.1-12.8,4.8-18.7c3.5-7.7,6.2-14.4,5.1-22.4
				c-0.8-5.8-2.8-11.1-2-17.8c0.9-7.7,5.3-14.4,9.9-18.8c5.3-5.2,11.2-8.2,16-14.8c2.9-4,4.7-8.5,5.3-13.8c0.4-3.8,0.4-7.6,0.9-11.4
				c1.5-12.4,9.4-21.8,16.6-21.3c6.9-1.5,12.9,4.4,13.2,15.6c0.2,8.9-3.9,17-6.6,25.5c-3,9.2-1.9,16,0.1,23.4c1.4,5,3,10.3,2.4,16.5
				c-0.5,6.3-3.3,11.9-6.3,17c-3.6,6.3-8.4,12.9-9,20.9c-0.3,4.3,0.5,8.1,0.1,12.4c-0.3,2.9-1.1,5.9-2.1,8.7
				c-5.8,15.1-17.5,19.4-26.3,17.4C568.5,459.9,563.5,457.1,558.9,453.9z"/>
		</g>
		<path class="st2" d="M609,388.5c-6.7,4.7-13.5,9.4-20.2,14c4.3-13.5,8-27.2,11.2-41.1c0.2,0.1,0.5,0.1,0.8-0.1
			c3-2.4,6.1-4.8,9.1-7.2c0.8-0.6-0.2-1.8-1-1.2c-2.9,2.2-5.7,4.5-8.6,6.7c2.2-9.9,4.1-19.8,5.7-29.8c0,0,0,0,0,0
			c3.1-2.7,6.2-5.4,9.3-8.1c0.7-0.6-0.2-1.8-1-1.2c-2.7,2.3-5.3,4.6-8,7c0.5-3.3,1-6.5,1.4-9.8c0.1-1-1.4-1.1-1.5-0.1
			c-1.1,8.2-2.4,16.3-3.9,24.4c-1.8-3.6-3.2-7.3-4.3-11.2c-0.3-0.9-1.7-0.7-1.5,0.3c1.3,4.6,3,9,5.2,13.2c0,0.1,0.1,0.1,0.1,0.1
			c-2.6,13.6-5.8,27.1-9.5,40.4c-3.2-7-5.8-14.3-7.5-21.9c-0.2-0.9-1.7-0.7-1.5,0.3c1.9,8.3,4.7,16.2,8.4,23.9
			c-3.8,13.2-8,26.3-12.9,39.1c-2.1-6.1-4.2-12.2-6.3-18.4c-0.3-0.9-1.7-0.3-1.4,0.6c2.3,6.6,4.5,13.3,6.8,19.9
			c-4.9,12.9-10.3,25.6-16.3,38c-0.4,0.9,1,1.4,1.4,0.5c4.5-9.3,8.6-18.8,12.5-28.4c0.1,0,0.3,0,0.4-0.1c6.3-4,12.6-8,18.8-12
			c0.8-0.5-0.1-1.7-1-1.2c-5.8,3.7-11.6,7.4-17.4,11.1c4.2-10.4,8-21,11.4-31.7c7.3-5.1,14.6-10.2,21.9-15.2
			C610.8,389.1,609.8,387.9,609,388.5z"/>
	</g>
	<g>
		<g>
			<path class="st4" d="M672.9,432.4c-30.1,28.3-72.7,41.6-113.6,35.7c-1.3-0.2,0.8-2.3,0.9-2.5c25.7-34.5,71.5-48.7,112.2-34.8
				C673,431,673.5,431.8,672.9,432.4z"/>
		</g>
		<path class="st2" d="M660.7,432.4c-26.4,9-52.8,18-79.2,27c6.3-5.9,12.7-11.7,19-17.6c0.6-0.6-0.2-1.7-0.9-1.1
			c-7.1,6.6-14.2,13.2-21.3,19.7c-8.1,2.8-16.3,5.5-24.4,8.3c-0.8,0.3-0.3,1.5,0.6,1.3c8-2.7,16-5.4,24-8.2c0.2,0,0.4,0,0.5-0.2
			c0,0,0,0,0,0c27.4-9.3,54.8-18.7,82.3-28C662.1,433.4,661.6,432.1,660.7,432.4z"/>
		<path class="st2" d="M630,433.3c0.7-0.6-0.2-1.6-0.9-1.1c-6.3,5.3-12.6,10.5-18.9,15.8c-0.7,0.6,0.2,1.6,0.9,1.1
			C617.4,443.9,623.7,438.6,630,433.3z"/>
		<path class="st2" d="M650.1,445c-5-0.8-9.9-1.6-14.9-2.3c5.9-4.3,11.8-8.7,17.7-13c0.7-0.5-0.2-1.6-0.9-1.1
			c-6.2,4.6-12.5,9.2-18.7,13.8c-0.7,0.5,0.1,1.5,0.8,1.1c0.1,0.3,0.2,0.5,0.6,0.5l15.3,2.4C650.8,446.5,650.9,445.1,650.1,445z"/>
		<path class="st2" d="M628.5,455.1l-16.3-5.6c-0.8-0.3-1.3,1-0.5,1.3l16.3,5.6C628.9,456.7,629.4,455.4,628.5,455.1z"/>
		<path class="st2" d="M597.5,462.9c-5.3-0.4-10.4-1.4-15.4-3.1c-0.8-0.3-1.3,1-0.5,1.3c5.1,1.7,10.4,2.8,15.8,3.2
			C598.2,464.3,598.4,462.9,597.5,462.9z"/>
	</g>
	<g>
		<g>
			<path class="st1" d="M565.6,450.5c-1.4-3-2.4-6.7-0.5-11.2c2.1-4.8,6.8-8.4,11.1-11.6c5.7-4.1,10.4-7.9,12.9-14.2
				c1.8-4.5,2.5-9.2,5.8-13.7c3.8-5.2,9.8-8.2,14.8-9.6c5.9-1.6,11.5-1.4,17.7-4.2c3.7-1.7,6.9-4.3,9.5-7.9c1.9-2.6,3.4-5.3,5.3-7.9
				c6.2-8.3,15.7-11.9,20.7-8.6c5.6,1.8,7.5,8.5,3.2,16.7c-3.5,6.6-9.8,10.7-15.3,15.8c-6,5.5-8,10.8-9.5,17c-1.1,4.2-2.1,8.7-5,13
				c-3,4.3-7.3,7.3-11.6,9.8c-5.2,3-11.4,5.9-15.1,11.5c-2,3-3,6.1-5,9.1c-1.4,2-3.2,3.9-5.1,5.4c-10.4,8.5-20.7,6.9-26.2,1.8
				C570.1,458.7,567.6,454.6,565.6,450.5z"/>
		</g>
		<path class="st2" d="M657.4,374.5c-8.4,7.5-16.7,15.1-25.1,22.6c1.6-4.3,3.2-8.6,4.9-13c0.3-0.8-1-1.2-1.3-0.4l-5.6,14.9
			c0,0.1,0,0.2,0,0.3c-7,6.4-13.9,12.8-20.8,19.2c1.5-7.6,3-15.2,4.5-22.8c0.2-0.9-1.2-1.2-1.3-0.4c-1.6,8.1-3.2,16.2-4.8,24.3
			c0,0.1,0,0.2,0,0.3c-6.4,6-12.8,11.9-19.2,17.9c1.5-6.3,3-12.5,4.5-18.8c0.2-0.9-1.1-1.2-1.3-0.4c-1.7,7-3.3,13.9-5,20.9
			c-4.3,4-8.5,8.1-12.8,12.1l4.7-18.9c0.2-0.9-1.1-1.2-1.3-0.4c-1.6,6.4-3.2,12.7-4.7,19.1c-0.1,0.4,0.2,0.7,0.5,0.8
			c0,0.1,0,0.1,0,0.2c-4.9,4.7-9.8,9.3-14.6,14c-0.6,0.6,0.3,1.6,1,1c4.9-4.7,9.9-9.5,14.8-14.2c6.6,0.7,13.1,1,19.7,0.8
			c0.9,0,0.9-1.4,0-1.4c-6.2,0.1-12.3-0.1-18.4-0.7c4-3.8,7.9-7.5,11.9-11.3c0.2,0,0.5-0.2,0.6-0.5c0,0,0,0,0,0
			c0.2-0.2,0.4-0.4,0.6-0.5c6.7-0.1,13.3-0.1,20-0.2c0.9,0,0.9-1.4,0-1.4c-6.2,0.1-12.3,0.1-18.5,0.2c6.3-5.9,12.6-11.9,19-17.7
			c7.2-0.1,14.4-0.3,21.6-0.5c0.9,0,0.9-1.4,0-1.4c-6.7,0.1-13.4,0.3-20.1,0.4c7-6.5,14.1-13,21.2-19.5c0.1,0.1,0.2,0.1,0.4,0.1
			l10.4,0c0.9,0,0.9-1.4,0-1.4c-3.1,0-6.2,0-9.3,0c8.4-7.6,16.8-15.2,25.2-22.8C659.1,374.9,658.1,373.9,657.4,374.5z"/>
	</g>
	<g>
		<path class="st5" d="M680.5,300.7l-15.5,37l-24.5,15.8l0,0l-5.8-5.1l-5.6-5l13.3-27.3l35.7-17.6L657,321.3c-1.7-0.8-3.8-0.4-5.1,1
			c-1.7,1.8-1.6,4.6,0.2,6.3c1.8,1.7,4.6,1.5,6.3-0.3c1.2-1.3,1.5-3.2,0.8-4.7l0.1-0.1L680.5,300.7z"/>
		<path class="st6" d="M629.2,374.8c-0.4,0.5-3.5,3.6-8.2,8.4c-6.3-12.5-18.2-16.3-18.7-16.5c4.2-5.3,6.9-8.7,7.4-9.2l8.7-9.8
			c1-1.2,2.9-1.5,5.1-1c2.7,0.6,5.9,2.3,8.8,4.9c0.1,0.1,0.2,0.2,0.7,0.8c0.1,0.1,0.3,0.3,0.5,0.6c0.4,0.5,0.9,1.1,1.5,2
			c0.3,0.4,0.7,0.9,1.1,1.5c0.4,0.6,0.9,1.2,1.5,1.9c0.7,1.4,1.1,2.8,1.1,4c0,1-0.3,1.9-0.9,2.6L629.2,374.8z"/>
		<g>
			<path class="st7" d="M621,383.3c-21.3,21.7-76.9,77.1-81.3,73.2c-4.4-3.9,43.7-65.9,62.6-89.7l0,0c0,0,0,0,0,0
				C602.8,366.9,614.7,370.8,621,383.3z"/>
		</g>
		<path class="st1" d="M641.4,354.2l-3.7,4.2c-0.5-0.7-1-1.3-1.5-1.9c-0.4-0.6-0.8-1.1-1.1-1.5c-0.7-0.9-1.2-1.5-1.5-2
			c-0.2-0.2-0.3-0.4-0.5-0.6c-0.5-0.6-0.6-0.7-0.7-0.8c-2.9-2.6-6.1-4.3-8.8-4.9l4.2-4.7l1.5,1.3c0,0,0,0,0,0l5.6,5l5.8,5.1
			L641.4,354.2z"/>
	</g>
	<g>
		<path class="st5" d="M631.5,289.6c0.2,1.2-0.2,2.4-1,3.3l-22.8,23.5c-0.8,0.9-1.9,1.2-2.9,0.9l-27.7-8.9c-1-0.3-1.7-1.2-1.9-2.4
			l-4.9-32.3c-0.2-1.2,0.2-2.4,1-3.3l11.1-11.4c0.8-0.8,1.9-1.2,3-0.8l7.7,2.5c2.1,0.7,2.6,3.8,0.9,5.7l-8.4,8.7
			c-0.8,0.8-1.2,2.1-1,3.3l2.4,15.8c0.2,1.2,0.9,2.1,1.9,2.4l13.5,4.3c1,0.3,2.1,0,3-0.8l11.1-11.4c0.8-0.9,1.2-2.1,1-3.3l-1.8-12
			c-0.4-2.5,1.8-4.8,4-4.1l7.7,2.5c1,0.3,1.7,1.2,1.9,2.4L631.5,289.6z"/>
		<path class="st6" d="M569,450.5c0.3,1.2-0.1,2.4-1,3.2l-13.2,11.8c-0.9,0.8-2.1,1.1-3.3,0.7l-17.1-5.5c-1.1-0.4-2-1.3-2.3-2.5
			l-3.9-17.3c-0.3-1.2,0.1-2.4,1-3.2l13.2-11.8c0.8-0.7,1.8-1,2.8-0.8c0.1,0,0.3,0,0.4,0.1l0.1,0l17.2,5.5c0.1,0,0.1,0,0.2,0.1
			c1,0.4,1.7,1.3,1.9,2.3L569,450.5z M556.1,449.8c0.9-0.8,1.3-2,1-3.1l-1-4.5l-0.2-0.7c-0.3-1.2-1.1-2.1-2.3-2.5l-5.2-1.7
			c-1.1-0.4-2.4-0.1-3.3,0.7l-0.6,0.5l-3.4,3.1c-0.9,0.8-1.3,2-1,3.1l1.2,5.3c0.3,1.2,1.1,2.1,2.3,2.5l5.2,1.7
			c1.1,0.4,2.4,0.1,3.3-0.7L556.1,449.8z"/>
		<polygon class="st1" points="601.7,316.3 600.5,320 598.8,319.5 579.3,313.3 580.5,309.5 		"/>
		<polygon class="st1" points="566.2,424.3 564,431.1 563.2,430.8 563.1,430.8 562.9,430.7 545.8,425.3 545.7,425.2 545.3,425.1 
			544.5,424.9 546.7,418 547.5,418.3 565.4,424 		"/>
		<polygon class="st6" points="598.8,319.5 565.4,424 547.5,418.3 580.9,313.8 		"/>
	</g>
	<path class="st8" d="M567.6,233.3v247.1H399.8c-1.8-9.9-10.8-18.1-20.8-18.8c-6.8-0.5-14.2,1.9-20-1.5c-6.1-3.5-7.5-11.5-7.9-18.5
		c-0.4-7-0.8-14.8-5.8-19.6c-4.8-4.6-12.2-4.8-18.9-5c-11.1-0.3-23.4-1.6-30.6-10c-5.8-6.8-6.6-16.8-4.2-25.5
		c2.3-8.6,7.4-16.2,12.3-23.7c4.5-6.7,8.9-13.4,13.4-20.1c5.2-7.8,10.7-17.2,7.7-26.1c-3.9-11.8-20.3-15.6-24.7-27.3
		c-2.8-7.5,0.1-16.4-3.6-23.6c-2.6-5-7.9-8-13.2-9.5c-10.6-3.1-22.5-1.4-31.8,4.6c-5.9,3.8-10.6,9-16.3,12.9s-13.2,6.4-19.6,3.8
		c-6.7-2.7-10.2-9.9-15.8-14.5c-5.9-4.8-13.9-6.4-21.4-5.5c-3.5,0.4-6.9,1.2-10.3,2.4v-21.6H567.6z"/>
	<g>
		<path class="st9" d="M547,248.7c-0.1,0.1-0.4,0.2-0.6,0.2h-0.6c-0.6,0-0.9-0.3-0.7-0.5l2.8-2.8l-2.8-2.8c-0.2-0.2,0.1-0.5,0.7-0.5
			h0.6c0.2,0,0.6,0.1,0.6,0.2l1.9,2c0.6-0.7,1.3-1.3,1.9-2c0.1-0.1,0.4-0.2,0.6-0.2h0.6c0.6,0,0.9,0.3,0.6,0.5l-2.7,2.8l2.8,2.8
			c0.2,0.2-0.1,0.5-0.6,0.5h-0.6c-0.2,0-0.6-0.1-0.7-0.2l-1.9-2L547,248.7z"/>
	</g>
	<g>
		<path class="st7" d="M538.5,240.3h-6.6c-0.9,0-1.6,0.7-1.6,1.6v2.6h1.4v-2.6c0-0.1,0.1-0.2,0.2-0.2h6.6c0.1,0,0.2,0.1,0.2,0.2v3.3
			c0,0.1-0.1,0.2-0.2,0.2h-3.7v1.4h3.7c0.9,0,1.6-0.7,1.6-1.6v-3.3C540.1,241,539.4,240.3,538.5,240.3z"/>
	</g>
	<g>
		<path class="st10" d="M534.6,243.1h-6.6c-0.9,0-1.6,0.7-1.6,1.6v3.3c0,0.9,0.7,1.6,1.6,1.6h6.6c0.9,0,1.6-0.7,1.6-1.6v-3.3
			C536.2,243.8,535.5,243.1,534.6,243.1z M534.8,248c0,0.1-0.1,0.2-0.2,0.2h-6.6c-0.1,0-0.2-0.1-0.2-0.2v-3.3c0-0.1,0.1-0.2,0.2-0.2
			h6.6c0.1,0,0.2,0.1,0.2,0.2V248z"/>
	</g>
	<path class="st11" d="M521.4,245.6H513c-0.2,0-0.4-0.2-0.4-0.4V244c0-0.2,0.2-0.4,0.4-0.4h8.4c0.2,0,0.4,0.2,0.4,0.4v1.1
		C521.8,245.4,521.6,245.6,521.4,245.6z"/>
	<g>
		<g>
			
				<rect x="354.1" y="263" transform="matrix(0.9841 0.1774 -0.1774 0.9841 59.7287 -69.5535)" class="st9" width="129.6" height="72.7"/>
		</g>
		<path class="st12" d="M477.6,283.5L366,263.4c-0.4-0.1-0.6-0.4-0.6-0.8l0.2-1.3c0.1-0.4,0.4-0.6,0.8-0.6l111.7,20.1
			c0.4,0.1,0.6,0.4,0.6,0.8l-0.2,1.3C478.4,283.3,478,283.6,477.6,283.5z"/>
		<path class="st12" d="M475.9,293.2l-111.7-20.1c-0.4-0.1-0.6-0.4-0.6-0.8l0.2-1.3c0.1-0.4,0.4-0.6,0.8-0.6l111.7,20.1
			c0.4,0.1,0.6,0.4,0.6,0.8l-0.2,1.3C476.7,293,476.3,293.3,475.9,293.2z"/>
		<path class="st12" d="M474.5,304.6l-111.7-20.1c-0.4-0.1-0.6-0.4-0.6-0.8l0.2-1.3c0.1-0.4,0.4-0.6,0.8-0.6L475,301.9
			c0.4,0.1,0.6,0.4,0.6,0.8l-0.2,1.3C475.3,304.4,474.9,304.7,474.5,304.6z"/>
		<path class="st12" d="M472.8,314.3l-111.7-20.1c-0.4-0.1-0.6-0.4-0.6-0.8l0.2-1.3c0.1-0.4,0.4-0.6,0.8-0.6l111.7,20.1
			c0.4,0.1,0.6,0.4,0.6,0.8l-0.2,1.3C473.6,314.1,473.2,314.4,472.8,314.3z"/>
		<path class="st12" d="M470.8,325.5l-111.7-20.1c-0.4-0.1-0.6-0.4-0.6-0.8l0.2-1.3c0.1-0.4,0.4-0.6,0.8-0.6l111.7,20.1
			c0.4,0.1,0.6,0.4,0.6,0.8l-0.2,1.3C471.5,325.3,471.2,325.6,470.8,325.5z"/>
		<path class="st12" d="M421.4,326.6l-64.1-11.5c-0.4-0.1-0.6-0.4-0.6-0.8l0.2-1.3c0.1-0.4,0.4-0.6,0.8-0.6l64.1,11.5
			c0.4,0.1,0.6,0.4,0.6,0.8l-0.2,1.3C422.2,326.4,421.8,326.7,421.4,326.6z"/>
	</g>
	<g>
		<rect x="438" y="376.5" class="st13" width="105.9" height="85.2"/>
		<g>
			<path class="st7" d="M442.3,407h-13.4c-3.3,0-5.9-2.6-5.9-5.9v-13.3c0-3.3,2.6-5.9,5.9-5.9h13.4c3.3,0,5.9,2.6,5.9,5.9v13.3
				C448.2,404.3,445.5,407,442.3,407z M428.9,383.6c-2.3,0-4.1,1.8-4.1,4.1v13.3c0,2.3,1.8,4.1,4.1,4.1h13.4c2.3,0,4.1-1.8,4.1-4.1
				v-13.3c0-2.3-1.8-4.1-4.1-4.1H428.9z"/>
		</g>
		<g>
			<path class="st7" d="M470.9,407h-13.3c-3.3,0-5.9-2.6-5.9-5.9v-13.3c0-3.3,2.6-5.9,5.9-5.9h13.3c3.3,0,5.9,2.6,5.9,5.9v13.3
				C476.8,404.3,474.1,407,470.9,407z M457.5,383.6c-2.3,0-4.1,1.8-4.1,4.1v13.3c0,2.3,1.8,4.1,4.1,4.1h13.3c2.3,0,4.1-1.8,4.1-4.1
				v-13.3c0-2.3-1.8-4.1-4.1-4.1H457.5z"/>
		</g>
		<g>
			<path class="st7" d="M459.7,438.3h-13.4c-3.3,0-5.9-2.6-5.9-5.9V419c0-3.3,2.6-5.9,5.9-5.9h13.4c3.3,0,5.9,2.6,5.9,5.9v13.4
				C465.6,435.6,462.9,438.3,459.7,438.3z M446.3,414.9c-2.3,0-4.1,1.8-4.1,4.1v13.4c0,2.3,1.8,4.1,4.1,4.1h13.4
				c2.3,0,4.1-1.8,4.1-4.1V419c0-2.3-1.8-4.1-4.1-4.1H446.3z"/>
		</g>
		<g>
			<path class="st7" d="M488.3,438.3h-13.4c-3.3,0-5.9-2.6-5.9-5.9V419c0-3.3,2.6-5.9,5.9-5.9h13.4c3.3,0,5.9,2.6,5.9,5.9v13.4
				C494.2,435.6,491.5,438.3,488.3,438.3z M474.9,414.9c-2.3,0-4.1,1.8-4.1,4.1v13.4c0,2.3,1.8,4.1,4.1,4.1h13.4
				c2.3,0,4.1-1.8,4.1-4.1V419c0-2.3-1.8-4.1-4.1-4.1H474.9z"/>
		</g>
		<g>
			<path class="st7" d="M499.4,407H486c-3.3,0-5.9-2.6-5.9-5.9v-13.3c0-3.3,2.6-5.9,5.9-5.9h13.4c3.3,0,5.9,2.6,5.9,5.9v13.3
				C505.3,404.3,502.6,407,499.4,407z M486,383.6c-2.3,0-4.1,1.8-4.1,4.1v13.3c0,2.3,1.8,4.1,4.1,4.1h13.4c2.3,0,4.1-1.8,4.1-4.1
				v-13.3c0-2.3-1.8-4.1-4.1-4.1H486z"/>
		</g>
	</g>
	<g>
		<line class="st14" x1="546.2" y1="456.2" x2="546.1" y2="456.2"/>
		<rect x="515.6" y="485" class="st15" width="41.6" height="5"/>
		<polygon class="st16" points="548.6,465.4 524.2,465.4 526.7,456.2 546.1,456.2 		"/>
		<polygon class="st17" points="553.9,485 518.9,485 524.2,465.4 548.6,465.4 		"/>
		<line class="st14" x1="548.7" y1="465.4" x2="548.6" y2="465.4"/>
		<path class="st17" d="M546.1,456.2h-19.5l5-18.6c0,0,0.2,3.8,4.7,3.8c4.4,0,4.7-3.8,4.7-3.8L546.1,456.2z"/>
		<path class="st15" d="M496,452.4c0,0-0.2,2.8-3.4,2.8c-3.3,0-3.5-2.8-3.5-2.8H496z"/>
		<line class="st14" x1="499.7" y1="466.1" x2="499.7" y2="466.1"/>
		<rect x="477.2" y="487.2" class="st15" width="30.6" height="3.7"/>
		<polygon class="st16" points="501.5,472.9 483.5,472.9 485.4,466.1 499.7,466.1 		"/>
		<polygon class="st17" points="505.4,487.2 479.6,487.2 483.5,472.9 501.5,472.9 		"/>
		<line class="st14" x1="501.6" y1="472.9" x2="501.5" y2="472.9"/>
		<path class="st17" d="M499.7,466.1h-14.3l3.7-13.7c0,0,0.2,2.8,3.5,2.8c3.3,0,3.4-2.8,3.4-2.8L499.7,466.1z"/>
		<path class="st15" d="M541.1,437.5c0,0-0.2,3.8-4.7,3.8c-4.4,0-4.7-3.8-4.7-3.8H541.1z"/>
	</g>
	<g>
		<path class="st17" d="M148.6,293.2c6.1,12.4,11.9,8.6,11.9,8.6c0.5,6.5-1,13.9-5.4,22.4l-8.6,1.8l-7.3,1.6c0,0,0,0,0,0
			c-0.6-0.2-14.3-4.2-9.7-23.2c2.3-9.7,4.6-14.2,5.7-18.5c0,0,0-0.1,0-0.1c0.2-0.6,0.3-1.3,0.4-1.9
			C136,283.7,142.7,281.2,148.6,293.2z"/>
		<g>
			<path class="st7" d="M134,269c0,0,24.9,10.3,26.6,32.9c0,0-5.8,3.8-11.9-8.6c-6-12.1-12.6-9.5-13-9.4
				C136.2,280.2,135.9,276.3,134,269z"/>
		</g>
		<path class="st6" d="M164.6,346.3c0.1,0.6,0.9,4.9,1.9,11.6c-13.8-2.3-24,4.9-24.4,5.2c-1.8-6.5-2.9-10.7-3-11.3l-2.7-12.8
			c-0.3-1.5,0.5-3.2,2.2-4.7c2.1-1.8,5.3-3.4,9.2-4.2c0.4-0.1,0.7-0.2,8.5-0.3l0,0c1.6,0.3,2.9,0.8,3.9,1.5c0.8,0.6,1.4,1.4,1.6,2.2
			L164.6,346.3z"/>
		<g>
			<path class="st7" d="M166.5,357.9c4.8,30,16.3,107.7,10.6,108.9c-5.7,1.2-27-74.3-34.9-103.7l0,0
				C142.5,362.8,152.7,355.6,166.5,357.9z"/>
		</g>
		<path class="st1" d="M155.1,324.2l1.2,5.5l0,0l0,0c-7.8,0.1-8.2,0.2-8.5,0.3c-3.8,0.8-7.1,2.4-9.2,4.2l-1.3-6.2l1.9-0.4
			c0,0,0,0,0,0l7.3-1.6L155.1,324.2z"/>
	</g>
	<path class="st11" d="M399.8,480.3H168V254.9c3.3-1.2,6.8-2,10.3-2.4c7.5-0.8,15.6,0.8,21.4,5.5c5.6,4.6,9.1,11.8,15.8,14.5
		c6.4,2.6,13.9,0.1,19.6-3.8s10.5-9.2,16.3-12.9c9.3-6,21.2-7.7,31.8-4.6c5.4,1.6,10.7,4.6,13.2,9.5c3.7,7.1,0.8,16.1,3.6,23.6
		c4.4,11.7,20.8,15.5,24.7,27.3c3,8.9-2.5,18.3-7.7,26.1c-4.5,6.7-8.9,13.4-13.4,20.1c-5,7.5-10,15.1-12.3,23.7
		c-2.3,8.6-1.6,18.6,4.2,25.5c7.2,8.4,19.5,9.8,30.6,10c6.7,0.1,14.1,0.4,18.9,5c5,4.8,5.4,12.6,5.8,19.6c0.4,7,1.9,15,7.9,18.5
		c5.9,3.4,13.3,1,20,1.5C389,462.2,397.9,470.5,399.8,480.3z"/>
	<g>
		<g>
			<path class="st18" d="M447.9,208.8l-1,24.5h1.2c-3.3,2.7-7.5,5.5-12.9,8.5c-17.6,9.9-31.7,13.4-31.7,13.4l-3.4-5.3
				c0,0,34.8-23.6,39.6-30c4.1-5.5,6.8-13.7,11.5-15.2C448,206.6,447.9,208.8,447.9,208.8z"/>
		</g>
		<path class="st18" d="M496.8,211.3c1.3,5.3,0.9,11.1-3.3,19.1c0.2-6.2,0.3-20.4-2.8-24.2c-1.2-1.4-2.7-2.4-4.4-3.2
			c0.4-0.2,0.8-0.3,1.2-0.4C487.5,202.6,494.8,203.2,496.8,211.3z"/>
		<g>
			<path class="st18" d="M490.7,206.2c3.1,3.8,3,18,2.8,24.2c-0.5,0.9-1,1.9-1.6,2.9h-17.2c2.8-4.9,4.9-9,5.5-11.1
				c1.9-7.3,1.1-16.9,6.1-19.2C487.9,203.7,489.5,204.7,490.7,206.2z"/>
		</g>
		<path class="st18" d="M454.8,264.6c1.4-2.1,12.8-19.1,19.9-31.4h17.2c-1.9,3.3-4.5,6.9-7.7,10.9c-11.5,14.4-22.3,22.8-24.1,24.1
			c-0.2,0.1-0.3,0.2-0.3,0.2l-5.1-3.6C454.7,264.8,454.8,264.8,454.8,264.6z"/>
		<g>
			<path class="st7" d="M486.3,203c-5.1,2.2-4.2,11.9-6.1,19.2c-0.6,2.1-2.7,6.2-5.5,11.1h-26.5c7.5-6.1,10.3-11.6,11.1-17.3
				c1.2-8.2-5.4-11.4-5.4-11.4c-0.9-0.2-1.8-0.1-2.6,0.1c2.2-1.2,5.8-2.3,11.7-2.6c-0.1,1-0.1,1.8-0.1,1.8l4.5,3.6l10.6-6
				C478,201.3,482.3,201.3,486.3,203z"/>
		</g>
		<path class="st19" d="M479.7,177.6c0.8,3.8-2.9,7.6-2.9,7.6l-3.6-1.4c0.8,0,1.4-1,1.6-1.8c0.3-1.3,0.3-2.6,0.3-3.9
			c0-0.7,0-1.5-0.1-2.2C476.4,173.9,478.9,173.8,479.7,177.6z"/>
		<path class="st19" d="M476.9,185.2l1.1,16.2l-10.6,6l-4.5-3.6c0,0,0-0.7,0.1-1.8c0.1-2.1,0.2-5.3-0.1-5.4
			c-0.5-0.1-6.7,0.5-9.4-0.9c-2.7-1.3-6.5-19-6.5-19l0-0.1c1.9-0.8,3.5-2,5.3-2.9c2.3-1.2,4.7-1.9,7.2-2.3c2.3-0.3,4.7-0.2,6.7,1
			c2.3,1.4,3.5,4.1,4.2,6.7c0.4,1.4,0.7,2.9,1.8,4c0.3,0.3,0.6,0.5,1,0.5c0,0,0.1,0,0.1,0L476.9,185.2z"/>
		<path class="st1" d="M440.3,166.9c0-0.8,0-1.6,0.3-2.3c0.4-1.1,1.2-2,2.3-2.2c2.4-0.4,4.2,3,6.7,2.8c1.1-0.1,1.9-0.9,2.6-1.8
			c0.7-0.8,1.3-1.8,2.2-2.3c1.7-1,3.9-0.3,5.6,0.7c1,0.6,1.9,1.3,3.1,1.3c2.2,0,3.8-2.4,5.9-2.3c1.7,0,3,1.6,3.7,3.2
			c0.9,1.9,1.3,4.1,1.6,6.2c0.3,1.9,0.5,3.8,0.6,5.8c0,0.7,0.1,1.5,0.1,2.2c0,1.3,0,2.6-0.3,3.9c-0.2,0.8-0.7,1.8-1.6,1.8
			c0,0-0.1,0-0.1,0c-0.4,0-0.7-0.3-1-0.5c-1-1-1.4-2.6-1.8-4c-0.7-2.6-1.9-5.3-4.2-6.7c-2-1.2-4.4-1.3-6.7-1
			c-2.5,0.3-4.9,1.1-7.2,2.3c-1.8,0.9-3.5,2.1-5.3,2.9c-0.1,0-0.1,0-0.2,0.1c-1.2,0.5-2.6,0.9-3.8,0.2c-1-0.5-1.5-1.7-1.9-2.7
			C440.3,171.9,440,169.3,440.3,166.9z"/>
		<path class="st19" d="M459.8,268.5c0,0,0.1-0.1,0.3-0.2c0,0-3.7,10.8-6.5,10.1s-7.1-1.7-7.5-4.1c-0.4-2.4,6.4-6.5,6.4-6.5
			s-3.4,0.4-4.1-0.7c-0.7-1.2,3.9-2.6,6.6-2.5c-0.1,0.1-0.1,0.2-0.1,0.2L459.8,268.5z"/>
		<path class="st7" d="M453.9,204.5c0,0,6.5,3.3,5.4,11.4c-0.8,5.7-3.6,11.1-11.1,17.3H447l1-24.5c0,0,0-2.2,3.4-4.1c0,0,0,0,0,0
			C452.1,204.4,453,204.3,453.9,204.5z"/>
		<path class="st19" d="M403.6,255.2c0.1,2.7-1.7,7.4-2.9,6.6c-1.1-0.8-0.5-4.1-0.5-4.1s-4.5,6.5-6.9,6c-2.4-0.5-3.1-4.8-3.6-7.7
			c-0.5-2.9,10.5-5.9,10.5-5.9L403.6,255.2z"/>
	</g>
	<g>
		<path class="st20" d="M317.2,462c-2.3,1.1-8.4,1.8-15.6,1.8c-3.1,0-6.1-0.1-8.6-0.4c-4.8-0.5-8-1.4-8-2.3v0l1.1-0.2
			c0,0,0-0.3-0.1-0.8c2.4-1,8.4-1.8,15.5-1.8c7.1,0,13.2,0.7,15.5,1.8c0,0.5-0.1,0.8-0.1,0.8l1.1,0.2v0
			C318.1,461.4,317.8,461.7,317.2,462z"/>
		<path class="st12" d="M304.7,471.9c0.6,0.9,1.3,1.9,2.2,2.4c1,0.5,2.2,0.6,3.2,0c0.5-0.3,0.9-0.9,1.4-1.3c0.5-0.4,1.2-0.7,1.7-0.4
			c0.6,0.3,0.8,1.1,1.4,1.2c0.4,0.1,0.8-0.2,1.1-0.5c0.7-0.8,0.8-2,0.9-3.1c0.2-2.6,0.3-5.5,0.5-8.1c0.6-0.3,0.9-0.6,1-0.9v14.5
			h-33.2v-14.5c0,1,3.2,1.9,8,2.3l0,0.2c0.4,1.8,1.1,3.8,2.7,4.7c1.5,0.8,3.3,0.5,4.9,0.4c0.6,0,1.2,0,1.8,0.2
			C303.5,469.4,304.1,470.7,304.7,471.9z"/>
		<path class="st3" d="M307,474.2c-1-0.5-1.7-1.4-2.2-2.4c-0.7-1.1-1.2-2.4-2.4-2.9c-0.6-0.2-1.2-0.2-1.8-0.2
			c-1.7,0.1-3.5,0.4-4.9-0.4c-1.6-0.9-2.3-2.8-2.7-4.7l0-0.2c2.5,0.3,5.4,0.4,8.6,0.4c7.2,0,13.3-0.8,15.6-1.8
			c-0.2,2.6-0.3,5.5-0.5,8.1c-0.1,1.1-0.2,2.3-0.9,3.1c-0.3,0.3-0.7,0.5-1.1,0.5c-0.6-0.1-0.9-0.9-1.4-1.2c-0.6-0.3-1.3,0-1.7,0.4
			c-0.5,0.4-0.9,1-1.4,1.3C309.2,474.9,307.9,474.8,307,474.2z"/>
		<path class="st1" d="M315.8,449.1c4.4,5.1,2.3,11.7,2.3,12c0-0.3-0.4-0.7-1.1-1c0.1-1.8-0.1-6.2-3-9.5c-2.6-3-6.8-4.5-12.6-4.5
			c-5.7,0-10,1.5-12.6,4.6c-2.9,3.4-3,7.7-3,9.5c-0.7,0.3-1.1,0.6-1.1,1c-0.1-0.3-2.1-6.9,2.3-12c3.1-3.5,7.9-5.4,14.3-5.4
			C308,443.8,312.8,445.6,315.8,449.1z"/>
		<path class="st1" d="M317,460.1c0.7,0.3,1.1,0.6,1.1,1l-1.1-0.2C317,460.9,317,460.6,317,460.1z"/>
		<rect x="284.9" y="486.9" class="st12" width="33.2" height="11.4"/>
		<rect x="284.9" y="475.6" class="st1" width="33.2" height="11.2"/>
	</g>
	<path class="st1" d="M357.4,456.3l-1.1,0.2c0-0.3,0.4-0.7,1.1-1C357.3,456,357.4,456.3,357.4,456.3z"/>
	<path class="st1" d="M349.7,464.2l-0.9-0.1c0,0,0-0.2,0-0.6C349.4,463.7,349.7,464,349.7,464.2z"/>
	<g>
		<path class="st1" d="M254.2,459.5c2.4-2.8,6.2-4.2,11.2-4.2c5,0,8.8,1.4,11.2,4.2c3.4,4,1.8,9.2,1.8,9.4c0-0.3-0.3-0.5-0.8-0.8
			c0.1-1.4,0-4.8-2.3-7.5c-2-2.3-5.4-3.5-9.8-3.5c-4.5,0-7.8,1.2-9.8,3.6c-2.3,2.6-2.4,6-2.3,7.4c-0.5,0.2-0.8,0.5-0.8,0.8
			C252.4,468.7,250.8,463.5,254.2,459.5z"/>
		<rect x="252.4" y="489" class="st12" width="25.9" height="8.9"/>
		<rect x="252.4" y="480.2" class="st1" width="25.9" height="8.8"/>
		<path class="st12" d="M278.4,468.9v11.4h-25.9v-11.4c0,1.2,5.8,2.2,13,2.2C272.6,471,278.4,470.1,278.4,468.9z"/>
		<path class="st1" d="M277.5,468.7l0.9,0.1c0,1.2-5.8,2.2-13,2.2c-7.2,0-13-1-13-2.2l0.9-0.1c0,0,0-0.2,0-0.6
			c1.9-0.8,6.6-1.4,12.1-1.4c5.5,0,10.3,0.6,12.1,1.4C277.5,468.5,277.5,468.7,277.5,468.7z"/>
		<path class="st1" d="M253.3,468.7l-0.9,0.1c0-0.3,0.3-0.5,0.8-0.8C253.3,468.5,253.3,468.7,253.3,468.7z"/>
	</g>
	<g>
		<path class="st12" d="M273.9,274.9c2.1,0.3,3.6,2.3,3.2,4.4c-0.2,1-0.7,1.9-1.5,2.5c-0.8,0.6-1.8,0.9-2.9,0.7l-25.8-3.9
			c-2.1-0.3-3.6-2.3-3.2-4.4c0.2-1,0.7-1.9,1.5-2.5s1.8-0.9,2.9-0.7L273.9,274.9z"/>
		<path class="st21" d="M257.5,290l-11.5,75.3c-0.1,0.4-0.4,0.6-0.8,0.6l-1.8-0.3c-0.4-0.1-0.6-0.4-0.6-0.8l11.5-75.3
			c0.1-0.4,0.4-0.6,0.8-0.6l1.8,0.3C257.3,289.3,257.6,289.6,257.5,290z"/>
		<g>
			<path class="st1" d="M255.6,289.2c-0.2,0-0.4-0.3-0.4-0.5l0.6-4l-17.1-2.6c-0.2,0-0.4-0.3-0.4-0.5l1.3-8.3c0-0.2,0.3-0.4,0.5-0.4
				l3.5,0.5c0.2,0,0.4,0.3,0.4,0.5c0,0.2-0.3,0.4-0.5,0.4l-3-0.5l-1.1,7.5l17.1,2.6c0.2,0,0.4,0.3,0.4,0.5l-0.7,4.4
				C256.1,289,255.8,289.2,255.6,289.2z"/>
		</g>
	</g>
	<g>
		<path class="st7" d="M214.3,383.4c0,1-0.1,2-0.3,3c0-0.5,0-0.9-0.1-1.4c-0.4-2.9-1.4-6-0.5-8.8c0.1,1.8,0.6,3.7,0.8,5.5
			C214.3,382.3,214.3,382.8,214.3,383.4z"/>
		<path class="st19" d="M257,320.7c0.3,3.4,3.4,6.6-5.5,6.3l-5.2-1.8c0,0-0.2-6.8,4.1-6.7C254.6,318.6,256.6,317.3,257,320.7z"/>
		<path class="st1" d="M232.8,503.4c20.1,1.6,15.7,4.8,15.7,4.8s-18.7,1-20.4,0c-1.7-1,0-4.8,0-4.8H232.8z"/>
		<path class="st15" d="M220.6,408.7l12.5,94.7h-0.4h-4.6h0c-16.8-40.2-13.6-50.3-13.6-50.3c-1.9-4-11.2-27.7-11.2-27.7
			C202.9,435.7,186,502,186,502h-4.6c-2.8-24.4,5.2-48.6,5.2-48.6s-2.3-12.3-2.8-25.1c-0.3-7.4,1.7-12.8,3.4-16.1c0,0,0,0,0,0
			c0.6-0.9,1-1.7,1.4-2.3c0,0,0.1-0.1,0.1-0.1c0.5-0.8,0.9-1.2,0.9-1.2C204.6,413.9,220.6,408.7,220.6,408.7z"/>
		<path class="st1" d="M221.5,360c0.2,3.4-1.5,6.7-4,9.1c-1.2,1.2-2.7,2.3-3.4,3.9c-0.5,1-0.6,2.1-0.6,3.2c0.1,1.8,0.6,3.7,0.8,5.5
			c0.1,0.6,0.1,1.1,0.1,1.7c0,1-0.1,2-0.3,3c0,0.2-0.1,0.3-0.1,0.4c-0.8,3.3-2.7,6.4-5.6,8.1c-4.4,2.6-10.8,1.5-13.5-2.8
			c-1.5-2.5-1.8-5.8-4-7.6c-1-0.8-2.2-1.2-3.5-1.5c-1.7-0.4-3.6-0.5-5.3-1.1c-2.1-0.8-3.9-2.4-4.9-4.3c-0.3-0.5-0.5-1-0.6-1.5
			c-1-3.6,0.3-7.4,2-10.7c1.7-3.3,3.9-6.4,4.8-10c2-8.3-3.1-17.3-0.2-25.4c2.1-5.8,7.9-9.5,13.9-11.2c0.9-0.3,1.8-0.5,2.8-0.5
			c3.1,0,6.4,1.5,8.5,3.8c1.5,1.7,2.6,3.7,3.3,5.9c0.7,2.5,0.9,5.3,0.7,7.9c-0.3,3-1.1,6.1-0.2,9.1c0.5,1.7,1.5,3.1,2.6,4.5
			c2.5,2.9,5.7,5.4,6.7,9.1C221.4,359,221.4,359.5,221.5,360z"/>
		<path class="st19" d="M216,339.7c0.5,7.2,0.1,9.2-1.4,9.7c-1.1-1.4-2.1-2.8-2.6-4.5c-0.8-2.9-0.1-6,0.2-9.1
			c0.3-2.6,0.1-5.4-0.7-7.9C211.6,328,215.4,331.4,216,339.7z"/>
		<path class="st1" d="M186,502c20.1,1.6,15.8,4.8,15.8,4.8s-18.7,1-20.4,0c-1.7-1,0-4.8,0-4.8H186z"/>
		<path class="st19" d="M188.5,405.4c0,0,1.2,2.5,0,4.4c0,0,0,0.1-0.1,0.1c-0.4,0.6-0.9,1.3-1.4,2.3c0,0,0,0,0,0
			c-1.3,2-3.3,4.2-6.3,3.4c-4.3-1.2-4-7.2,2.3-7.1L188.5,405.4z"/>
		<path class="st18" d="M188.5,405.4l-5.5,3.1c-3.5-2.5-12.8-17.5-14.6-20.3c-1.9-2.8,5.4-7.7,5.4-7.7l3.3-3c1,2,2.8,3.6,4.9,4.3
			c1.7,0.6,3.5,0.7,5.3,1.1l-7.4,3.9C182.7,392.9,188.5,405.4,188.5,405.4z"/>
		<g>
			<path class="st7" d="M218.5,386.9c-0.1,5,0.2,13.2,2.2,21.8c0,0-16.1,5.2-31.2,0c0,0,0.5-1.2,1.1-2.9c1.1-3,2.6-7.6,2.4-9.5
				c0.3-7.3-5.7-13.3-5.7-13.3c1.3,0.3,2.5,0.7,3.5,1.5c2.2,1.9,2.5,5.1,4,7.6c2.7,4.4,9.1,5.4,13.5,2.8c2.9-1.8,4.8-4.8,5.6-8.1
				l0.1,0c0-0.2,0-0.3,0-0.5c0.2-1,0.3-2,0.3-3c0-0.6,0-1.1-0.1-1.7c-0.2-1.8-0.8-3.7-0.8-5.5c0-1.1,0.1-2.2,0.6-3.2
				c0.7-1.6,2.2-2.7,3.4-3.9c2.5-2.4,4.2-5.8,4-9.1h0c0,0,20.2-18.5,23.8-35.2l1,0.4l5.2,1.8c0,0-11.3,38.8-32.8,55.1
				C218.6,382.1,218.5,383.9,218.5,386.9z"/>
		</g>
	</g>
	<path class="st14" d="M400,482.3c-0.1-0.6-0.1-1.3-0.3-1.9"/>
	<path class="st22" d="M466.4,182.9c1.2-0.5,2.5,0.1,3,1.3c0.5,1.2-0.1,2.5-1.3,3c-1.2,0.5-2.5-0.1-3-1.3
		C464.6,184.7,465.2,183.4,466.4,182.9z"/>
	<path class="st22" d="M451.9,185.8c1.2-0.5,2.5,0.1,3,1.3c0.5,1.2-0.1,2.5-1.3,3c-1.2,0.5-2.5-0.1-3-1.3
		C450.1,187.6,450.7,186.3,451.9,185.8z"/>
	<path class="st23" d="M457.4,181.1c-0.2,1.3-0.4,2.5-0.4,3.8c0,1.3,0,2.6,0.4,3.8l0.1,0.2l0.2-0.1c1.1-0.3,2.2-0.7,3.2-1
		c-1.1,0.2-2.2,0.4-3.3,0.7l0.2,0.1c-0.3-1.2-0.3-2.5-0.4-3.7C457.4,183.6,457.4,182.4,457.4,181.1z"/>
	<path class="st24" d="M453,180c0.3,0.8,0.4,1.6,0.3,2.5c-0.1,0.4-0.2,0.9-0.4,1.3c-0.3,0.4-0.7,0.7-1.2,0.8c-0.5,0.2-1.1,0-1.4-0.2
		c-0.4-0.3-0.7-0.6-0.9-1c-0.4-0.8-0.6-1.6-0.7-2.4c0.3,0.7,0.7,1.5,1.2,2.1c0.5,0.6,1.1,1.1,1.7,0.9c0.3-0.1,0.6-0.3,0.8-0.6
		c0.2-0.3,0.3-0.6,0.5-1C453,181.6,453,180.8,453,180z"/>
	<path class="st24" d="M466,176.4c0.3,0.8,0.4,1.6,0.3,2.5c-0.1,0.4-0.2,0.9-0.4,1.3c-0.3,0.4-0.7,0.7-1.2,0.8
		c-0.5,0.2-1.1,0-1.4-0.2c-0.4-0.3-0.7-0.6-0.9-1c-0.4-0.8-0.6-1.6-0.7-2.4c0.3,0.7,0.7,1.5,1.2,2.1c0.5,0.6,1.1,1.1,1.7,0.9
		c0.3-0.1,0.6-0.3,0.8-0.6c0.2-0.3,0.3-0.6,0.5-1C466,178,466,177.2,466,176.4z"/>
	<path class="st12" d="M457,191l8.2-2.1c0,0,0.7,3.7-2.9,4.6C458.7,194.4,457,191,457,191z"/>
</g>
</svg>
