<?xml version="1.0" encoding="utf-8"?>
<!-- Generator: Adobe Illustrator 19.0.0, SVG Export Plug-In . SVG Version: 6.00 Build 0)  -->
<svg version="1.1" id="Isolation_Mode" xmlns="http://www.w3.org/2000/svg" xmlns:xlink="http://www.w3.org/1999/xlink" x="0px"
	 y="0px" viewBox="34 147 680 500" style="enable-background:new 34 147 680 500;" xml:space="preserve">
<style type="text/css">
	.st0{display:none;}
	.st1{display:inline;opacity:0.56;}
	.st2{fill:#FAFAFA;}
	.st3{fill:#FF7A58;}
	.st4{opacity:0.3;fill:#008DA7;}
	.st5{opacity:0.4;fill:none;stroke:#008DA7;stroke-width:0.5564;stroke-miterlimit:10;}
	.st6{fill:none;stroke:#FAFAFA;stroke-width:0.5564;stroke-miterlimit:10;}
	.st7{opacity:0.2;fill:#005077;}
	.st8{fill:#9E9D98;}
	.st9{fill:#D6D5CA;}
	.st10{fill:url(#SVGID_1_);}
	.st11{fill:url(#SVGID_2_);}
	.st12{fill:url(#SVGID_3_);}
	.st13{fill:#008DA7;}
	.st14{fill:url(#SVGID_4_);}
	.st15{fill:url(#SVGID_5_);}
	.st16{fill:url(#SVGID_6_);}
	.st17{fill:url(#SVGID_7_);}
	.st18{fill:url(#SVGID_8_);}
	.st19{fill:url(#SVGID_9_);}
	.st20{fill:url(#SVGID_10_);}
	.st21{fill:url(#SVGID_11_);}
	.st22{fill:url(#SVGID_12_);}
	.st23{fill:url(#SVGID_13_);}
	.st24{fill:url(#SVGID_14_);}
	.st25{fill:url(#SVGID_15_);}
	.st26{fill:#CCCBC4;}
	.st27{opacity:0.32;fill:url(#SVGID_16_);}
	.st28{fill:#EEEBD4;}
	.st29{fill:url(#SVGID_17_);}
	.st30{fill:#002856;}
	.st31{fill:none;stroke:#959A8F;stroke-width:1.015;stroke-linecap:round;stroke-miterlimit:10;}
	.st32{fill:#62AFBD;}
	.st33{fill:#7AC8D6;}
	.st34{fill:#5E5050;}
	.st35{fill:#EFEBE9;}
	.st36{fill:#B0BEC5;}
	.st37{fill:#959A8F;}
	.st38{fill:#60B0E1;}
	.st39{fill:#FFFFFF;}
	.st40{fill:#E37296;}
</style>
<g>
	<g>
		<g class="st0">
			<g class="st1">
				<path class="st2" d="M306.5,279.2v-95.5c0-3.9,3.1-7,7-7h160.3c3.9,0,7,3.1,7,7v95.5c0,3.9-3.1,7-7,7H313.5
					C309.7,286.1,306.5,283,306.5,279.2z M313.5,177.7c-3.2,0-5.9,2.6-5.9,5.9v95.5c0,3.2,2.6,5.9,5.9,5.9h160.3
					c3.2,0,5.9-2.6,5.9-5.9v-95.5c0-3.2-2.6-5.9-5.9-5.9H313.5z"/>
			</g>
			<g class="st1">
				<path class="st2" d="M315.8,211.9v-26.5c0-1.9,1.5-3.4,3.4-3.4h149c1.9,0,3.4,1.5,3.4,3.4v26.5c0,1.9-1.5,3.4-3.4,3.4h-149
					C317.3,215.2,315.8,213.7,315.8,211.9z M319.2,183.1c-1.2,0-2.3,1-2.3,2.3v26.5c0,1.2,1,2.3,2.3,2.3h149c1.2,0,2.3-1,2.3-2.3
					v-26.5c0-1.2-1-2.3-2.3-2.3H319.2z"/>
			</g>
			<g class="st1">
				<path class="st2" d="M315.8,272.4v-10.7c0-1.9,1.5-3.4,3.4-3.4h149c1.9,0,3.4,1.5,3.4,3.4v10.7c0,1.9-1.5,3.4-3.4,3.4h-149
					C317.3,275.8,315.8,274.3,315.8,272.4z M319.2,259.5c-1.2,0-2.3,1-2.3,2.3v10.7c0,1.2,1,2.3,2.3,2.3h149c1.2,0,2.3-1,2.3-2.3
					v-10.7c0-1.2-1-2.3-2.3-2.3H319.2z"/>
			</g>
			<g class="st1">
				<path class="st2" d="M399.4,249.2v-24.9c0-2.3,1.9-4.2,4.2-4.2h64.3c2,0,3.7,1.7,3.7,3.7v25.8c0,2-1.7,3.7-3.7,3.7h-64.3
					C401.2,253.4,399.4,251.5,399.4,249.2z M403.5,221.3c-1.7,0-3,1.4-3,3v24.9c0,1.7,1.4,3,3,3h64.3c1.4,0,2.6-1.2,2.6-2.6v-25.8
					c0-1.4-1.2-2.6-2.6-2.6H403.5z"/>
			</g>
			<g class="st1">
				<path class="st2" d="M315.8,249.7v-25.8c0-2,1.7-3.7,3.7-3.7h65.2c2.3,0,4.2,1.9,4.2,4.2v24.9c0,2.3-1.9,4.2-4.2,4.2h-65.2
					C317.5,253.4,315.8,251.7,315.8,249.7z M319.5,221.3c-1.4,0-2.6,1.2-2.6,2.6v25.8c0,1.4,1.2,2.6,2.6,2.6h65.2c1.7,0,3-1.4,3-3
					v-24.9c0-1.7-1.4-3-3-3H319.5z"/>
			</g>
			<g class="st1">
				<path class="st3" d="M314.4,331.9V306c0-2,1.7-3.7,3.7-3.7h65.2c2.3,0,4.2,1.9,4.2,4.2v24.9c0,2.3-1.9,4.2-4.2,4.2h-65.2
					C316,335.5,314.4,333.9,314.4,331.9z M318.1,303.5c-1.4,0-2.6,1.2-2.6,2.6v25.8c0,1.4,1.2,2.6,2.6,2.6h65.2c1.7,0,3-1.4,3-3
					v-24.9c0-1.7-1.4-3-3-3H318.1z"/>
			</g>
			<g class="st1">
				<path class="st3" d="M507.5,244.3v-25.8c0-2,1.7-3.7,3.7-3.7h65.2c2.3,0,4.2,1.9,4.2,4.2v24.9c0,2.3-1.9,4.2-4.2,4.2h-65.2
					C509.1,248,507.5,246.3,507.5,244.3z M511.2,215.9c-1.4,0-2.6,1.2-2.6,2.6v25.8c0,1.4,1.2,2.6,2.6,2.6h65.2c1.7,0,3-1.4,3-3
					v-24.9c0-1.7-1.4-3-3-3H511.2z"/>
			</g>
			<g class="st1">
				<path class="st2" d="M285,364.1v-44.3c0-3.3,1.6-5.9,3.7-5.9h65.2c2.3,0,4.2,3,4.2,6.7v42.7c0,3.8-1.8,6.7-4.2,6.7h-65.2
					C286.6,370,285,367.4,285,364.1z M288.7,314.9c-1.4,0-2.6,2.2-2.6,4.8v44.3c0,2.6,1.2,4.8,2.6,4.8h65.2c1.6,0,3-2.6,3-5.6v-42.7
					c0-3-1.4-5.6-3-5.6H288.7z"/>
			</g>
			<g class="st1">
				<path class="st2" d="M453.9,290.5v-44.3c0-3.3,2.4-5.9,5.4-5.9h101.1c3.4,0,6.1,3,6.1,6.7v42.7c0,3.7-2.8,6.7-6.1,6.7H459.3
					C456.3,296.4,453.9,293.8,453.9,290.5z M459.3,241.4c-2.4,0-4.3,2.2-4.3,4.8v44.3c0,2.7,1.9,4.8,4.3,4.8h101.1
					c2.8,0,5-2.5,5-5.6V247c0-3.1-2.3-5.6-5-5.6H459.3z"/>
			</g>
			<g class="st1">
				<path class="st3" d="M327.4,408v-44.3c0-3.3,1.6-5.9,3.7-5.9h65.2c2.3,0,4.2,3,4.2,6.7v42.7c0,3.8-1.8,6.7-4.2,6.7H331
					C329,413.9,327.4,411.3,327.4,408z M331,358.8c-1.4,0-2.6,2.2-2.6,4.8V408c0,2.6,1.2,4.8,2.6,4.8h65.2c1.6,0,3-2.6,3-5.6v-42.7
					c0-3-1.4-5.6-3-5.6H331z"/>
			</g>
		</g>
	</g>
	<g>
		<g>
			<rect x="559" y="257.7" class="st4" width="131.6" height="66.3"/>
			<rect x="384.5" y="180" class="st4" width="205" height="130.6"/>
			<rect x="359.6" y="345.9" class="st4" width="84.9" height="63.6"/>
		</g>
		<g>
			<g>
				<rect x="620.9" y="206.9" class="st5" width="86.2" height="37.9"/>
				<rect x="409.6" y="322.8" class="st5" width="84.9" height="65"/>
			</g>
			<g>
				<rect x="396" y="188.5" class="st6" width="182.5" height="37.3"/>
				<rect x="493.3" y="233.6" class="st6" width="85.2" height="37.9"/>
				<rect x="396" y="233.6" class="st6" width="86.9" height="37.9"/>
				<rect x="396" y="278.6" class="st6" width="182.5" height="19.3"/>
			</g>
		</g>
	</g>
</g>
<g>
	<path class="st7" d="M231.5,606.4c0,2.4,67.4,13.9,89.8,13.9c22.4,0,28,9.8,65.1,7.5c13.7-0.8,45.8-15.1,51.3-15.1
		c113.8,0,206.1-2.9,206.1-6.4s-92.3-6.4-206.1-6.4c-41,0-90.7-0.6-122.8,0C257.8,601.1,231.5,604.1,231.5,606.4z"/>
	<g>
		<g>
			<g>
				<g>
					<polygon class="st8" points="555.5,571.2 567.4,611.1 562.8,611.1 549.4,571.2 					"/>
					<polygon class="st9" points="539.9,571.2 549.4,571.2 562.8,611.1 557.3,611.1 					"/>
				</g>
				<g>
					<polygon class="st8" points="617.2,565.8 629,605.8 624.5,605.8 611.1,565.8 					"/>
					<polygon class="st9" points="601.6,565.8 611.1,565.8 624.5,605.8 618.9,605.8 					"/>
				</g>
			</g>
			<g>
				<g>
					<polygon class="st8" points="322.1,560 310.3,600 314.8,600 328.2,560 					"/>
					<polygon class="st9" points="337.7,560 328.2,560 314.8,600 320.4,600 					"/>
				</g>
				<g>
					<polygon class="st8" points="260.5,565.8 248.6,605.8 253.2,605.8 266.6,565.8 					"/>
					<polygon class="st9" points="276.1,565.8 266.6,565.8 253.2,605.8 258.7,605.8 					"/>
				</g>
			</g>
			<g>
				
					<linearGradient id="SVGID_1_" gradientUnits="userSpaceOnUse" x1="294.7501" y1="453.2003" x2="294.7501" y2="527.8912" gradientTransform="matrix(-1 0 0 1 760.4654 0)">
					<stop  offset="0" style="stop-color:#008DA7"/>
					<stop  offset="1" style="stop-color:#00425A"/>
				</linearGradient>
				<path class="st10" d="M364,373.5h31.3h213.3l-33.4,149.3H353.7h-30.9v-108C322.8,392,341.2,373.5,364,373.5z"/>
				
					<linearGradient id="SVGID_2_" gradientUnits="userSpaceOnUse" x1="168.5075" y1="406.1177" x2="168.5075" y2="523.649" gradientTransform="matrix(-1 0 0 1 760.4654 0)">
					<stop  offset="5.376340e-002" style="stop-color:#005077"/>
					<stop  offset="1" style="stop-color:#002856"/>
				</linearGradient>
				<path class="st11" d="M608.7,373.5v149.3h-33.4V406.9C575.3,388.5,590.2,373.5,608.7,373.5L608.7,373.5z"/>
			</g>
			
				<linearGradient id="SVGID_3_" gradientUnits="userSpaceOnUse" x1="464.9784" y1="485.2321" x2="464.9784" y2="528.1519" gradientTransform="matrix(-1 0 0 1 760.4654 0)">
				<stop  offset="5.376340e-002" style="stop-color:#005077"/>
				<stop  offset="1" style="stop-color:#002856"/>
			</linearGradient>
			<path class="st12" d="M242.7,569.8V461.8h74.8c16.9,0,30.7,13.7,30.7,30.7v87.2h-66.7h-29L242.7,569.8z"/>
			<path class="st13" d="M242.8,461.8L242.8,461.8v108.1c0,5.4,4.4,9.8,9.8,9.8h29v-79.1C281.5,479.1,264.1,461.8,242.8,461.8z"/>
			
				<linearGradient id="SVGID_4_" gradientUnits="userSpaceOnUse" x1="358.2974" y1="530.8273" x2="358.2974" y2="523.6198" gradientTransform="matrix(-1 0 0 1 760.4654 0)">
				<stop  offset="5.376340e-002" style="stop-color:#005077"/>
				<stop  offset="1" style="stop-color:#002856"/>
			</linearGradient>
			<rect x="275.9" y="522.8" class="st14" width="252.5" height="48.3"/>
			<rect x="275.9" y="531.3" class="st13" width="252.5" height="48.3"/>
			<path class="st13" d="M565.6,461.8L565.6,461.8c-21.4,0-38.7,17.3-38.7,38.7v79.1h38.7V461.8z"/>
			
				<linearGradient id="SVGID_5_" gradientUnits="userSpaceOnUse" x1="160.6308" y1="466.9078" x2="160.6308" y2="634.3969" gradientTransform="matrix(-1 0 0 1 760.4654 0)">
				<stop  offset="5.376340e-002" style="stop-color:#005077"/>
				<stop  offset="1" style="stop-color:#002856"/>
			</linearGradient>
			<path class="st15" d="M622.2,579.6h-56.7V461.8h58.5c5.6,0,10.1,4.5,10.1,10.1v95.9C634.1,574.3,628.8,579.6,622.2,579.6z"/>
		</g>
		<g>
			<g>
				<g>
					
						<linearGradient id="SVGID_6_" gradientUnits="userSpaceOnUse" x1="277.7078" y1="402.5207" x2="311.925" y2="402.5207" gradientTransform="matrix(-1 0 0 1 760.4654 0)">
						<stop  offset="0" style="stop-color:#D81B60"/>
						<stop  offset="1" style="stop-color:#002856;stop-opacity:0.9697"/>
					</linearGradient>
					<path class="st16" d="M460.7,439.5c-3-5.2-7.2-9.8-12.2-13.2c2.4-2.2,8.6-8,8.9-8.9c0.3-1,0.3-34,0.2-41
						c-0.1-4,1.2-8.4,4.8-10.2c2.7-1.3,6.1-0.7,8.7,0.9c5.4,3.2,7.9,9.5,9.9,15.5c5.3,16-3.3,43.7-3.7,44.7
						C477,428.5,465.8,437.1,460.7,439.5z"/>
					
						<linearGradient id="SVGID_7_" gradientUnits="userSpaceOnUse" x1="299.7255" y1="438.4946" x2="335.6581" y2="438.4946" gradientTransform="matrix(-1 0 0 1 760.4654 0)">
						<stop  offset="0" style="stop-color:#FAE8DC"/>
						<stop  offset="1" style="stop-color:#FAB9AB;stop-opacity:0.9697"/>
					</linearGradient>
					<path class="st17" d="M448.5,426.3l-23.7,19.7l2.5,4.6l33.5-11.1C460.7,439.5,453.3,426.2,448.5,426.3z"/>
					<g>
						<polygon class="st2" points="424.8,446 417.3,463.1 418.8,465 428.4,456.9 427.3,450.7 						"/>
						<polygon class="st2" points="423.1,461.3 424.8,466.4 429,469.3 429.2,468.3 426.3,465.2 424.6,460 						"/>
						<polygon class="st2" points="421.3,462.1 421.8,467.4 425.3,471.2 425.7,470.3 423.6,466.6 423.1,461.2 						"/>
						<polygon class="st2" points="419.4,462.9 418.9,468.2 421.7,472.5 422.2,471.7 420.8,467.7 421.3,462.3 						"/>
						<polygon class="st2" points="417.3,463.1 416.8,468.5 419.6,472.8 420.1,472 418.7,468 419.2,462.6 						"/>
					</g>
				</g>
				
					<linearGradient id="SVGID_8_" gradientUnits="userSpaceOnUse" x1="265.1918" y1="351.5297" x2="285.2369" y2="583.1611" gradientTransform="matrix(-1 0 0 1 760.4654 0)">
					<stop  offset="0" style="stop-color:#D81B60"/>
					<stop  offset="1" style="stop-color:#002856;stop-opacity:0.9697"/>
				</linearGradient>
				<path class="st18" d="M492.8,340.6c1.9,0,3.6,0.7,5.4,1.4c9.7,3.9,19.3,7.8,29,11.8c1.6,0.6,3.3,1.4,4.2,2.8
					c0.9,1.3,1,2.9,1,4.5c1.8,40.9-8.9,93.1-23.5,131.3c-19.5,0.3-39.2-8-59.1-11.7c9.8-26.6,15-70.7,4.4-96.9
					c-1.9-4.7-1.1-13,0.8-17.7c0.8-2.1,19.9-18.7,31.8-23.9C488.9,341.3,490.8,340.5,492.8,340.6z"/>
				<g>
					
						<linearGradient id="SVGID_9_" gradientUnits="userSpaceOnUse" x1="236.1744" y1="359.1243" x2="236.1744" y2="438.3608" gradientTransform="matrix(-1 0 0 1 760.4654 0)">
						<stop  offset="0" style="stop-color:#D81B60"/>
						<stop  offset="1" style="stop-color:#002856;stop-opacity:0.9697"/>
					</linearGradient>
					<path class="st19" d="M513.2,454.1c-1.5-7.2-4.6-14-8.9-19.9c3.6-1.6,12.9-5.9,13.6-6.8c0.8-1-0.5-53.5,2-61.7
						c1.4-4.6,4.7-9.2,9.4-9.9c3.6-0.5,7.2,1.5,9.6,4.3c4.9,5.8,5.5,14,5.5,21.6c0,20.4-6.7,63.5-7.4,64.5
						C536,447.6,519.9,453.2,513.2,454.1z"/>
					
						<linearGradient id="SVGID_10_" gradientUnits="userSpaceOnUse" x1="247.3087" y1="444.1842" x2="290.984" y2="444.1842" gradientTransform="matrix(-1 0 0 1 760.4654 0)">
						<stop  offset="0" style="stop-color:#FAE8DC"/>
						<stop  offset="1" style="stop-color:#FAB9AB;stop-opacity:0.9697"/>
					</linearGradient>
					<path class="st20" d="M504.2,434.3l-34.8,13.6l1.1,6.3h42.6C513.2,454.1,509.8,435.9,504.2,434.3z"/>
					<g>
						
							<linearGradient id="SVGID_11_" gradientUnits="userSpaceOnUse" x1="289.912" y1="457.5313" x2="306.1195" y2="457.5313" gradientTransform="matrix(-1 0 0 1 760.4654 0)">
							<stop  offset="0" style="stop-color:#FAE8DC"/>
							<stop  offset="1" style="stop-color:#FAB9AB;stop-opacity:0.9697"/>
						</linearGradient>
						<polygon class="st21" points="469.5,447.8 454.3,464.6 455.3,467.3 469.5,461.7 470.6,454.1 						"/>
						
							<linearGradient id="SVGID_12_" gradientUnits="userSpaceOnUse" x1="294.4534" y1="469.9637" x2="298.7904" y2="469.9637" gradientTransform="matrix(-1 0 0 1 760.4654 0)">
							<stop  offset="0" style="stop-color:#FAE8DC"/>
							<stop  offset="1" style="stop-color:#FAB9AB;stop-opacity:0.9697"/>
						</linearGradient>
						<polygon class="st22" points="461.7,464.7 461.7,471.2 465.4,476.1 466,475.1 463.8,470.4 463.9,463.8 						"/>
						
							<linearGradient id="SVGID_13_" gradientUnits="userSpaceOnUse" x1="298.7904" y1="470.7232" x2="302.5843" y2="470.7232" gradientTransform="matrix(-1 0 0 1 760.4654 0)">
							<stop  offset="0" style="stop-color:#FAE8DC"/>
							<stop  offset="1" style="stop-color:#FAB9AB;stop-opacity:0.9697"/>
						</linearGradient>
						<polygon class="st23" points="459.3,464.9 457.9,471.3 460.5,476.9 461.3,476 460.2,471 461.7,464.6 						"/>
						
							<linearGradient id="SVGID_14_" gradientUnits="userSpaceOnUse" x1="301.2169" y1="471.0585" x2="306.2209" y2="471.0585" gradientTransform="matrix(-1 0 0 1 760.4654 0)">
							<stop  offset="0" style="stop-color:#FAE8DC"/>
							<stop  offset="1" style="stop-color:#FAB9AB;stop-opacity:0.9697"/>
						</linearGradient>
						<polygon class="st24" points="456.8,465.1 454.2,471 455.7,477 456.7,476.3 456.5,471.2 459.2,465.2 						"/>
						
							<linearGradient id="SVGID_15_" gradientUnits="userSpaceOnUse" x1="303.7191" y1="470.5466" x2="308.7232" y2="470.5466" gradientTransform="matrix(-1 0 0 1 760.4654 0)">
							<stop  offset="0" style="stop-color:#FAE8DC"/>
							<stop  offset="1" style="stop-color:#FAB9AB;stop-opacity:0.9697"/>
						</linearGradient>
						<polygon class="st25" points="454.3,464.6 451.7,470.5 453.2,476.5 454.2,475.8 454,470.7 456.7,464.7 						"/>
					</g>
				</g>
			</g>
			<polygon class="st2" points="423.1,461 424,468.1 422.7,468.1 420.9,463.5 			"/>
			<g>
				<polygon class="st8" points="368.4,506.8 387.4,498 476,524.4 405.2,527.5 405.2,538.8 396.7,562 370.4,522.8 				"/>
				<polygon class="st26" points="380.5,612.7 370.4,522.8 402.2,546.9 392,613 				"/>
				<path class="st9" d="M301,539.5c0.2-0.5,55.7-48.4,55.7-48.4l18.4-9.4l5.6,27.4L312,543C311.9,543,301,539.5,301,539.5z"/>
				<path class="st9" d="M508.7,492.3l-6.7,19.5c-5.1,14.7-21.1,23.3-37.1,20.1l-89-22.4c-7-1.4-12-7.3-12-14v0
					c0-7.9,6.8-14.3,15.2-14.3l80.8,0.4L508.7,492.3z"/>
			</g>
			
				<radialGradient id="SVGID_16_" cx="393.4891" cy="418.3172" r="193.6886" gradientTransform="matrix(-1 0 0 1 760.4654 0)" gradientUnits="userSpaceOnUse">
				<stop  offset="1.058200e-002" style="stop-color:#EEEBD4"/>
				<stop  offset="1" style="stop-color:#FFD8AD;stop-opacity:0"/>
			</radialGradient>
			<path class="st27" d="M337.7,423.9l-167.5-69.4l46-85.6c43.3-56.6,131.2-77.2,210.2-70.5l61.5,12.2l-74,215.8L337.7,423.9z"/>
			<g>
				<path class="st28" d="M429.6,477.5h-78.1l-11.7-47.9c-1.1-4.4,2.3-8.6,6.8-8.6h63.7c3.2,0,6,2.2,6.8,5.3L429.6,477.5z"/>
				<path class="st9" d="M426.3,477.5l-12.5-51.2c-0.8-3.1-3.6-5.3-6.8-5.3h-63.7c-2.3,0-4.4,1.1-5.6,2.9l53.6,53.6H426.3z"/>
				<path class="st26" d="M337.7,423.9c-1.2,1.6-1.7,3.7-1.2,5.8l11.7,47.9h43.1L337.7,423.9z"/>
				<path class="st8" d="M461.8,477.5h-67.4l3.9,3.9h67.4C465.7,479.3,464,477.5,461.8,477.5z"/>
				<path class="st8" d="M348.2,477.5c0,2.2,1.8,3.9,3.9,3.9h46.2l-3.9-3.9H348.2z"/>
				<path class="st28" d="M465.7,481.5h-35.5c-2.2,0-3.9-1.8-3.9-3.9h35.4C464,477.5,465.7,479.3,465.7,481.5z"/>
			</g>
			<g>
				<path class="st3" d="M453.6,320c-2.7,1.9-6.5,1.9-9.2,0.1c-2.7-1.8-4.1-5.4-3.4-8.6c-5.2,1.8-11-4.5-8.8-9.5
					c-3.3-0.4-6.2-3.4-6.3-6.7c-0.2-3.3,2.4-6.6,5.6-7.3c-1.6-4.1-0.4-9.1,2.8-12.1c3.2-3,8.3-3.8,12.3-2c0.1-5.3,3.6-10.3,8.5-12.2
					c4.9-1.9,10.9-0.5,14.5,3.3c8.2-5.3,20.8-1.3,24.3,7.8c6.7-0.4,12.7,6.5,11.5,13c3.9-0.1,7.7,2.6,9,6.3
					c1.3,3.7-0.1,8.1-3.2,10.5c4.2,5,0.8,14.1-5.6,15.2c2,1.6,2.5,4.7,1.2,6.9c-1.3,2.2-4.4,3.1-6.7,2c0.4,3.5-1.4,7.1-4.5,8.8
					c-3,1.7-7.1,1.5-9.9-0.7L453.6,320z"/>
				<g>
					
						<linearGradient id="SVGID_17_" gradientUnits="userSpaceOnUse" x1="261.2103" y1="331.2433" x2="313.6368" y2="331.2433" gradientTransform="matrix(-1 0 0 1 760.4654 0)">
						<stop  offset="0" style="stop-color:#FAE8DC"/>
						<stop  offset="1" style="stop-color:#FAB9AB;stop-opacity:0.9697"/>
					</linearGradient>
					<path class="st29" d="M452.4,300.2c-2.5,1.3-3.4,4.6-3,7.5c0.4,2.8,1.6,5.5,2.1,8.3c0.5,2.8,0.2,6.1-2,7.9
						c-1.1,0.9-2.7,1.6-2.7,3c0,1.8,2.6,2.2,4.2,3.1c2.5,1.4,2.9,4.7,3,7.6c0.1,2.8,0.7,6.2,3.3,7.4c3.3,1.5,6.7-1.8,10.3-2.7
						c3.3-0.8,6.8,0.5,9.4,2.7c2.6,2.2,9.3,14.8,11.1,17.6c5.9-0.7,11-9.1,11.2-18l-17.2-20.8c2.1,0.3,4.1-1.1,5.1-2.9
						c1-1.8,0.8-4.3-0.6-5.8c-1.4-1.5-7.3-3.3-7.3,3.5c0,0-4-3.8-5.7-9.3C469.8,297.2,452.4,300.2,452.4,300.2z"/>
				</g>
			</g>
			<polygon class="st30" points="392,613 380.5,612.7 365.9,619.9 347.6,621.4 344.9,625.4 395.9,627.8 			"/>
			<polygon class="st30" points="312,543 301,539.5 285,542.4 267,538.8 263.3,541.9 311.7,558.3 			"/>
		</g>
	</g>
</g>
<g>
	<ellipse class="st7" cx="158.6" cy="597.6" rx="34.7" ry="3.2"/>
	<g>
		<g>
			<polyline class="st31" points="151.1,492.1 157.8,515.6 157.2,539.9 			"/>
			<line class="st31" x1="169.1" y1="492.2" x2="157.8" y2="515.6"/>
		</g>
		<g>
			<g>
				<g>
					<path class="st32" d="M186.7,485.2c-7.2,10.6-15.1,14.2-19.9,11.4l26.5-38.8C193.3,461,193.2,475.6,186.7,485.2z"/>
					<path class="st33" d="M193.2,457.1c0,0,0,0.2,0,0.7l-26.5,38.8c-0.1-0.1-0.2-0.1-0.3-0.2c-4.8-3.2-4.4-12,3-22.9
						C176.9,462.7,193.2,457.1,193.2,457.1z"/>
					<path class="st34" d="M172.5,487.7c1.8-2.6,3.6-5.2,5.4-7.8c3.6-5.2,7.2-10.4,10.8-15.6c0-0.1,0.2,0,0.1,0.1
						c-2.3,3.6-4.7,7.1-7.1,10.7c2.1-0.2,4.4-0.3,6.7-0.1c0.1,0,0.2,0.2,0.1,0.2c-2.1,0.4-4.6,0.3-6.9,0.2c-1.1,1.6-2.2,3.2-3.2,4.8
						c-1.8,2.6-3.6,5.2-5.3,7.8c-1.8,2.6-3.3,5.4-5.4,7.8c-0.1,0.2-0.5-0.1-0.4-0.3C168.7,492.8,170.7,490.3,172.5,487.7z"/>
					<path class="st34" d="M174.9,484.5c3.6-0.4,7.4-0.5,11.2-0.2c0.1,0,0.1,0.1,0,0.1c-3.6,0.4-7.4,0.5-11.2,0.3
						C174.9,484.7,174.8,484.5,174.9,484.5z"/>
					<path class="st34" d="M175.3,471.7c0.6,1.4,1.1,2.8,1.7,4.2c0.5,1.3,1.1,2.5,1.3,3.8c0,0.1-0.2,0.1-0.2,0
						c-0.7-1.2-1.1-2.5-1.5-3.8c-0.5-1.4-1-2.8-1.4-4.2C175.2,471.6,175.3,471.6,175.3,471.7z"/>
					<path class="st34" d="M168.8,481.8c1,2.4,2.1,4.8,2.7,7.2c0,0.1-0.2,0.2-0.2,0c-1.1-2.4-1.8-4.8-2.6-7.2
						C168.6,481.7,168.7,481.7,168.8,481.8z"/>
					<path class="st34" d="M169.1,492.2c2.9-0.4,6.1-0.3,9.2-0.2c0.1,0,0.2,0.1,0.1,0.1c-2.9,0.3-6,0.5-9.1,0.3
						C169,492.5,169,492.3,169.1,492.2z"/>
				</g>
				<g>
					<path class="st32" d="M184.6,529.4c-9.9,10.9-19.4,13.7-24.4,9.7l36.2-39.9C196,503,193.5,519.5,184.6,529.4z"/>
					<path class="st33" d="M196.5,498.5c0,0,0,0.3-0.1,0.7l-36.2,39.9c-0.1-0.1-0.2-0.2-0.3-0.3c-4.9-4.4-3.1-14.4,7-25.5
						C177,502.2,196.5,498.5,196.5,498.5z"/>
					<path class="st34" d="M168.1,529.9c2.4-2.7,4.9-5.4,7.3-8c4.9-5.4,9.8-10.7,14.8-15.9c0.1-0.1,0.2,0.1,0.1,0.1
						c-3.2,3.7-6.5,7.3-9.7,11c2.4,0.1,5.1,0.3,7.6,0.9c0.1,0,0.2,0.2,0.1,0.2c-2.5,0.1-5.3-0.4-7.9-0.9c-1.5,1.7-3,3.3-4.4,5
						c-2.4,2.7-4.9,5.4-7.3,8.1c-2.4,2.7-4.7,5.6-7.4,8c-0.2,0.2-0.6-0.2-0.4-0.4C162.9,535.1,165.7,532.6,168.1,529.9z"/>
					<path class="st34" d="M171.3,526.7c4.1,0.1,8.5,0.6,12.7,1.5c0.1,0,0.1,0.2,0,0.2c-4.1-0.1-8.4-0.6-12.7-1.4
						C171.2,526.9,171.2,526.7,171.3,526.7z"/>
					<path class="st34" d="M173.9,512.2c0.5,1.7,0.8,3.3,1.2,5c0.4,1.5,0.8,3,0.8,4.5c0,0.1-0.2,0.1-0.2,0c-0.6-1.5-0.8-3-1.1-4.5
						c-0.3-1.7-0.6-3.3-0.9-5C173.7,512.1,173.8,512.1,173.9,512.2z"/>
					<path class="st34" d="M164.8,522.6c0.7,2.9,1.6,5.8,1.9,8.7c0,0.2-0.2,0.1-0.3,0c-0.9-2.9-1.3-5.8-1.8-8.6
						C164.6,522.5,164.7,522.5,164.8,522.6z"/>
					<path class="st34" d="M163.5,534.6c3.3,0.1,7,0.6,10.4,1.3c0.1,0,0.2,0.2,0,0.2c-3.4-0.1-6.9-0.4-10.4-1.2
						C163.4,534.8,163.3,534.6,163.5,534.6z"/>
				</g>
				<g>
					<path class="st32" d="M128.7,523.8c6.8,15.1,16,21.4,22.7,18.9l-24.9-55.2C125.7,491.6,122.6,510.2,128.7,523.8z"/>
					<path class="st33" d="M126.7,486.6c0,0-0.1,0.3-0.2,0.8l24.9,55.2c0.2-0.1,0.3-0.1,0.5-0.2c6.8-3,8.3-14.3,1.3-29.7
						C146.3,497.4,126.7,486.6,126.7,486.6z"/>
					<path class="st34" d="M146.2,530.1c-1.7-3.7-3.4-7.4-5-11.1c-3.4-7.4-6.8-14.8-10.3-22.2c0-0.1-0.2,0-0.2,0.1
						c2.2,5.1,4.4,10.1,6.6,15.1c-2.6-0.7-5.5-1.4-8.4-1.6c-0.2,0-0.3,0.2-0.1,0.2c2.6,0.9,5.8,1.4,8.8,1.8c1,2.3,2,4.6,3,6.8
						c1.7,3.7,3.3,7.4,5,11.2c1.6,3.7,3,7.6,5.1,11.1c0.1,0.2,0.7,0,0.6-0.3C149.9,537.4,147.8,533.8,146.2,530.1z"/>
					<path class="st34" d="M143.8,525.5c-4.5-1.3-9.3-2.3-14.1-2.8c-0.1,0-0.2,0.1-0.1,0.2c4.4,1.3,9.2,2.3,14.1,2.9
						C143.8,525.8,144,525.6,143.8,525.5z"/>
					<path class="st34" d="M146.2,509.2c-1.1,1.6-2.1,3.3-3.1,4.9c-0.9,1.5-1.9,3-2.4,4.5c0,0.1,0.2,0.2,0.3,0.1
						c1.2-1.4,1.9-2.9,2.7-4.4c0.9-1.7,1.8-3.3,2.7-5C146.4,509.1,146.2,509.1,146.2,509.2z"/>
					<path class="st34" d="M152.3,523.4c-1.8,2.8-3.7,5.7-5.1,8.6c-0.1,0.2,0.2,0.2,0.3,0.1c2-2.8,3.4-5.7,4.9-8.6
						C152.4,523.4,152.3,523.3,152.3,523.4z"/>
					<path class="st34" d="M149.5,536.7c-3.6-1.1-7.7-1.8-11.6-2.3c-0.1,0-0.2,0.1-0.1,0.2c3.6,1,7.6,2,11.6,2.4
						C149.5,537,149.7,536.7,149.5,536.7z"/>
				</g>
				<g>
					<path class="st32" d="M136.8,486.3c5.1,8.7,11,12,14.9,10l-18.5-32C133,466.9,132.2,478.4,136.8,486.3z"/>
					<path class="st33" d="M133.2,463.9c0,0,0,0.2-0.1,0.5l18.5,32c0.1,0,0.2-0.1,0.3-0.1c3.9-2.3,4.1-9.2-1-18.1
						C145.8,469.2,133.2,463.9,133.2,463.9z"/>
					<path class="st26" d="M147.8,489c-1.3-2.1-2.5-4.3-3.8-6.4c-2.5-4.3-5-8.6-7.6-12.8c0,0-0.1,0-0.1,0.1c1.6,2.9,3.3,5.9,4.9,8.8
						c-1.6-0.3-3.4-0.5-5.2-0.5c-0.1,0-0.2,0.1-0.1,0.2c1.7,0.4,3.6,0.5,5.4,0.5c0.8,1.3,1.5,2.6,2.3,4c1.2,2.2,2.5,4.3,3.7,6.5
						c1.2,2.1,2.3,4.4,3.8,6.4c0.1,0.1,0.4,0,0.3-0.2C150.5,493.3,149,491.2,147.8,489z"/>
					<path class="st34" d="M146,486.4c-2.8-0.5-5.8-0.8-8.7-0.8c-0.1,0-0.1,0.1,0,0.1c2.8,0.5,5.8,0.8,8.7,0.9
						C146.1,486.6,146.1,486.5,146,486.4z"/>
					<path class="st34" d="M146.5,476.4c-0.5,1.1-1,2.1-1.6,3.2c-0.5,1-1,1.9-1.2,2.9c0,0.1,0.1,0.1,0.2,0c0.6-0.9,1-1.9,1.4-2.9
						c0.4-1.1,0.9-2.1,1.3-3.2C146.6,476.3,146.5,476.3,146.5,476.4z"/>
					<path class="st34" d="M151.1,484.6c-0.9,1.8-1.9,3.7-2.5,5.5c0,0.1,0.1,0.1,0.2,0C149.7,488.4,150.4,486.5,151.1,484.6
						C151.2,484.6,151.1,484.6,151.1,484.6z"/>
					<path class="st34" d="M150.2,492.8c-2.3-0.4-4.8-0.6-7.2-0.7c-0.1,0-0.1,0.1-0.1,0.1c2.3,0.4,4.7,0.7,7.2,0.7
						C150.2,493,150.3,492.9,150.2,492.8z"/>
				</g>
				<g>
					<rect x="129.2" y="535.7" class="st35" width="56.8" height="9.1"/>
					<rect x="129.2" y="544.8" class="st8" width="56.8" height="3.9"/>
					<polygon class="st35" points="129.2,594.4 129.2,548.7 185.9,548.7 185.9,572 161.8,594.4 					"/>
					<polygon class="st36" points="142.5,594.4 185.9,556.3 185.9,594.4 					"/>
					<polygon class="st37" points="185.9,594.4 185.9,598.3 159.1,598.3 163.4,594.4 					"/>
					<polygon class="st8" points="129.2,594.4 163.4,594.4 159.1,598.3 129.2,598.3 					"/>
				</g>
			</g>
		</g>
	</g>
</g>
<g id="XMLID_44_">
	<path id="XMLID_45_" class="st38" d="M242.9,252.5V293c0,4.1,3.3,7.4,7.4,7.4h52.3l18.5,18.5v-18.5h4c4.1,0,7.4-3.3,7.4-7.4v-40.4
		c0-4.1-3.3-7.4-7.4-7.4h-74.8C246.3,245.2,242.9,248.4,242.9,252.5z"/>
	<g id="XMLID_46_">
		<path id="XMLID_177_" class="st39" d="M317.1,287.2L317.1,287.2c0,1.4-1.1,2.5-2.5,2.5H297c-1.4,0-2.5-1.1-2.5-2.5l0,0
			c0-1.4,1.1-2.5,2.5-2.5h17.6C316,284.7,317.1,285.8,317.1,287.2z"/>
	</g>
	<g id="XMLID_47_">
		<path id="XMLID_175_" class="st39" d="M317.1,274.9L317.1,274.9c0,1.4-1.1,2.5-2.5,2.5h-32.5c-1.4,0-2.5-1.1-2.5-2.5l0,0
			c0-1.4,1.1-2.5,2.5-2.5h32.5C316,272.4,317.1,273.5,317.1,274.9z"/>
	</g>
	<g id="XMLID_48_">
		<path id="XMLID_173_" class="st39" d="M317.1,262.9L317.1,262.9c0,1.4-1.1,2.5-2.5,2.5h-55.9c-1.4,0-2.5-1.1-2.5-2.5l0,0
			c0-1.4,1.1-2.5,2.5-2.5h55.9C316,260.4,317.1,261.5,317.1,262.9z"/>
	</g>
</g>
<g id="XMLID_78_">
	<path id="XMLID_125_" class="st40" d="M228.5,387.2V341c0-1.7-1.4-3.1-3.1-3.1H86.9c-1.7,0-3.1,1.4-3.1,3.1v46.2
		c0,1.7,1.4,3.1,3.1,3.1h138.5C227.2,390.3,228.5,388.9,228.5,387.2z"/>
	<g id="XMLID_79_">
		<path id="XMLID_124_" class="st39" d="M131.3,378.1V350c0-0.6-0.5-1-1-1h-29.7c-0.6,0-1,0.5-1,1v28.1c0,0.6,0.5,1,1,1h29.7
			C130.9,379.1,131.3,378.7,131.3,378.1z"/>
		<g id="XMLID_80_">
			<path id="XMLID_122_" class="st39" d="M212.8,353.2L212.8,353.2c0-1.2-1-2.2-2.2-2.2h-68.8c-1.2,0-2.2,1-2.2,2.2l0,0
				c0,1.2,1,2.2,2.2,2.2h68.8C211.8,355.4,212.8,354.4,212.8,353.2z"/>
			<g id="XMLID_81_">
				<path id="XMLID_121_" class="st39" d="M167.9,365.4v-2.6c0-0.4-0.3-0.8-0.8-0.8h-26.6c-0.4,0-0.8,0.3-0.8,0.8v2.6
					c0,0.4,0.3,0.8,0.8,0.8h26.7C167.6,366.2,168,365.9,167.9,365.4z"/>
				<path id="XMLID_120_" class="st39" d="M212.7,365.4v-2.6c0-0.4-0.3-0.8-0.8-0.8h-31.3c-0.4,0-0.8,0.3-0.8,0.8v2.6
					c0,0.4,0.3,0.8,0.8,0.8h31.3C212.4,366.2,212.8,365.9,212.7,365.4z"/>
			</g>
			<path id="XMLID_118_" class="st39" d="M195.6,374.9L195.6,374.9c0-1.2-1-2.2-2.2-2.2h-51.6c-1.2,0-2.2,1-2.2,2.2l0,0
				c0,1.2,1,2.2,2.2,2.2h51.6C194.6,377.1,195.6,376.2,195.6,374.9z"/>
		</g>
	</g>
</g>
</svg>
